<?xml version="1.0" encoding="UTF-8" standalone="no"?>
<!-- Created with Inkscape (http://www.inkscape.org/) -->

<svg
   xmlns:dc="http://purl.org/dc/elements/1.1/"
   xmlns:cc="http://creativecommons.org/ns#"
   xmlns:rdf="http://www.w3.org/1999/02/22-rdf-syntax-ns#"
   xmlns:svg="http://www.w3.org/2000/svg"
   xmlns="http://www.w3.org/2000/svg"
   xmlns:sodipodi="http://sodipodi.sourceforge.net/DTD/sodipodi-0.dtd"
   xmlns:inkscape="http://www.inkscape.org/namespaces/inkscape"
   id="svg18610"
   version="1.1"
   inkscape:version="0.48.1 r9760"
   width="1966.2494"
   height="1097.6593"
   xml:space="preserve"
   sodipodi:docname="percepts&amp;distributions&amp;BUF.svg"><metadata
     id="metadata18616"><rdf:RDF><cc:Work
         rdf:about=""><dc:format>image/svg+xml</dc:format><dc:type
           rdf:resource="http://purl.org/dc/dcmitype/StillImage" /><dc:title /></cc:Work></rdf:RDF></metadata><defs
     id="defs18614" /><sodipodi:namedview
     pagecolor="#ffffff"
     bordercolor="#666666"
     borderopacity="1"
     objecttolerance="10"
     gridtolerance="10"
     guidetolerance="10"
     inkscape:pageopacity="0"
     inkscape:pageshadow="2"
     inkscape:window-width="1290"
     inkscape:window-height="701"
     id="namedview18612"
     showgrid="false"
     inkscape:zoom="0.23868973"
     inkscape:cx="1446.7665"
     inkscape:cy="336.37532"
     inkscape:window-x="-5"
     inkscape:window-y="0"
     inkscape:window-maximized="0"
     inkscape:current-layer="g18620"
     fit-margin-top="0"
     fit-margin-left="0"
     fit-margin-right="0"
     fit-margin-bottom="0" /><g
     id="g18618"
     inkscape:groupmode="layer"
     inkscape:label="percepts&amp;distributions&amp;BUF"
     transform="matrix(1.25,0,0,-1.25,0,1097.6593)"><g
       id="g18620"><path
   d="m 590.684,593.295 139.707,0 c 8.238,0 14.871,-6.632 14.871,-14.871 0,-8.242 -6.633,-14.875 -14.871,-14.875 l -139.707,0 c -8.243,0 -14.875,6.633 -14.875,14.875 0,8.239 6.632,14.871 14.875,14.871 z"
   style="fill:#02a4d3;fill-opacity:0.66274498;fill-rule:nonzero;stroke:none"
   id="path18622"
   inkscape:connector-curvature="0" /><path
   d="m 590.684,646.096 139.707,0 c 8.238,0 14.871,-6.633 14.871,-14.871 0,-8.242 -6.633,-14.875 -14.871,-14.875 l -139.707,0 c -8.243,0 -14.875,6.633 -14.875,14.875 0,8.238 6.632,14.871 14.875,14.871 z"
   style="fill:#02a4d3;fill-opacity:0.66274498;fill-rule:nonzero;stroke:none"
   id="path18624"
   inkscape:connector-curvature="0" /><path
   d="m 465.379,645.354 85.519,0 c 14.11,0 25.465,-11.355 25.465,-25.461 l 0,-30.141 c 0,-14.105 -11.355,-25.464 -25.465,-25.464 l -85.519,0 c -14.106,0 -25.461,11.359 -25.461,25.464 l 0,30.141 c 0,14.106 11.355,25.461 25.461,25.461 z"
   style="fill:#fabc51;fill-opacity:1;fill-rule:nonzero;stroke:none"
   id="path18626"
   inkscape:connector-curvature="0" /><path
   d="m 305.883,593.295 118.066,0 c 8.242,0 14.875,-6.632 14.875,-14.871 0,-8.242 -6.633,-14.875 -14.875,-14.875 l -118.066,0 c -8.238,0 -14.875,6.633 -14.875,14.875 0,8.239 6.637,14.871 14.875,14.871 z"
   style="fill:#02a4d3;fill-opacity:0.66274498;fill-rule:nonzero;stroke:none"
   id="path18628"
   inkscape:connector-curvature="0" /><path
   d="m 305.883,646.096 118.066,0 c 8.242,0 14.875,-6.633 14.875,-14.871 0,-8.242 -6.633,-14.875 -14.875,-14.875 l -118.066,0 c -8.238,0 -14.875,6.633 -14.875,14.875 0,8.238 6.637,14.871 14.875,14.871 z"
   style="fill:#02a4d3;fill-opacity:0.66274498;fill-rule:nonzero;stroke:none"
   id="path18630"
   inkscape:connector-curvature="0" /><path
   d="m 26.98,645.354 237.801,0 c 14.11,0 25.465,-11.355 25.465,-25.461 l 0,-30.141 c 0,-14.105 -11.355,-25.464 -25.465,-25.464 l -237.801,0 c -14.105,0 -25.464,11.359 -25.464,25.464 l 0,30.141 c 0,14.106 11.359,25.461 25.464,25.461 z"
   style="fill:#fabc51;fill-opacity:1;fill-rule:nonzero;stroke:none"
   id="path18632"
   inkscape:connector-curvature="0" /><g
   id="g18634"
   transform="matrix(1,0,0,-1,0,878.12744)"><path
     d="m 738.816,217.621 c 5.536,0 9.993,6.637 9.993,14.875 l 0,81.024 c 0,8.238 -4.457,14.871 -9.993,14.871 -5.535,0 -9.988,-6.633 -9.988,-14.871 l 0,-81.024 c 0,-8.238 4.453,-14.875 9.988,-14.875 z"
     style="fill:#ffffff;fill-opacity:1;fill-rule:nonzero;stroke:#ffffff;stroke-width:0.39902201;stroke-linecap:butt;stroke-linejoin:miter;stroke-miterlimit:4;stroke-opacity:1;stroke-dasharray:none"
     id="path18636"
     inkscape:connector-curvature="0" /></g><g
   id="g18638"
   transform="matrix(1,0,0,-1,0,878.12744)"><path
     d="m 1.191,195.984 0,117.489 746.051,0"
     style="fill:none;stroke:#000000;stroke-width:2.4000001;stroke-linecap:butt;stroke-linejoin:miter;stroke-miterlimit:9.30000019;stroke-opacity:1;stroke-dasharray:none"
     id="path18640"
     inkscape:connector-curvature="0" /></g><text
   transform="scale(1,-1)"
   id="text18642"
   x="149.47502"
   y="-529.91046"
   style="font-size:38.40000153px"><tspan
     style="font-size:38.40000153px;font-variant:normal;font-weight:normal;writing-mode:lr-tb;fill:#000000;fill-opacity:1;fill-rule:nonzero;stroke:none;font-family:Arial;-inkscape-font-specification:ArialMT"
     x="149.47502"
     y="-529.91046"
     sodipodi:role="line"
     id="tspan18644">time (s)</tspan></text>


<g
   id="g18646"
   transform="matrix(1,0,0,-1,0,878.12744)"><path
     d="M 200.309,113.434 C 137.367,111.562 108.395,102.941 81.953,78.207 74.535,71.266 67.145,62.398 53.348,43.883 46.953,35.305 40.145,26.773 38.215,24.93 31.035,18.062 26.867,18.766 22.43,27.602 c -5.09,10.121 -9.895,39.648 -12,73.71 -0.649,10.458 0.004,11.391 0.004,11.391 103.824,-0.141 183.031,0.375 286.168,-0.141 -3.809,-0.925 -73.758,0.872 -96.293,0.872 z"
     style="fill:#fabc51;fill-opacity:1;fill-rule:nonzero;stroke:#4d4d4d;stroke-width:1.60000002;stroke-linecap:butt;stroke-linejoin:miter;stroke-miterlimit:4;stroke-opacity:1;stroke-dasharray:none"
     id="path18648"
     inkscape:connector-curvature="0" /></g><g
   id="g18650"
   transform="matrix(0.880029,0,0,-1,0,878.12744)"><path
     d="m 10.467,112.914 347.165,0"
     style="fill:none;stroke:#000000;stroke-width:2;stroke-linecap:butt;stroke-linejoin:round;stroke-miterlimit:10;stroke-opacity:1;stroke-dasharray:none"
     id="path18652"
     inkscape:connector-curvature="0" /></g><g
   id="g18654"
   transform="matrix(0.880029,0,0,-1,0,878.12744)"><path
     d="M 10.467,112.914 10.467,0"
     style="fill:none;stroke:#000000;stroke-width:2;stroke-linecap:butt;stroke-linejoin:round;stroke-miterlimit:10;stroke-opacity:1;stroke-dasharray:none"
     id="path18656"
     inkscape:connector-curvature="0" /></g><g
   id="g18658"
   transform="matrix(0.880029,0,0,-1,0,878.12744)"><path
     d="m 10.467,112.914 347.165,0"
     style="fill:none;stroke:#000000;stroke-width:2;stroke-linecap:butt;stroke-linejoin:round;stroke-miterlimit:10;stroke-opacity:1;stroke-dasharray:none"
     id="path18660"
     inkscape:connector-curvature="0" /></g><g
   id="g18662"
   transform="matrix(0.880029,0,0,-1,0,878.12744)"><path
     d="M 10.467,112.914 10.467,0"
     style="fill:none;stroke:#000000;stroke-width:2;stroke-linecap:butt;stroke-linejoin:round;stroke-miterlimit:10;stroke-opacity:1;stroke-dasharray:none"
     id="path18664"
     inkscape:connector-curvature="0" /></g><g
   id="g18666"
   transform="matrix(0.880029,0,0,-1,0,878.12744)"><path
     d="m 10.467,0 0,3.414"
     style="fill:none;stroke:#000000;stroke-width:2;stroke-linecap:butt;stroke-linejoin:round;stroke-miterlimit:10;stroke-opacity:1;stroke-dasharray:none"
     id="path18668"
     inkscape:connector-curvature="0" /></g><g
   id="g18670"
   transform="matrix(0.880029,0,0,-1,0,878.12744)"><path
     d="m 10.467,112.914 347.165,0"
     style="fill:none;stroke:#000000;stroke-width:2;stroke-linecap:butt;stroke-linejoin:round;stroke-miterlimit:10;stroke-opacity:1;stroke-dasharray:none"
     id="path18672"
     inkscape:connector-curvature="0" /></g><g
   id="g18674"
   transform="matrix(0.880029,0,0,-1,0,878.12744)"><path
     d="M 10.467,112.914 10.467,0"
     style="fill:none;stroke:#000000;stroke-width:2;stroke-linecap:butt;stroke-linejoin:round;stroke-miterlimit:10;stroke-opacity:1;stroke-dasharray:none"
     id="path18676"
     inkscape:connector-curvature="0" /></g><path
   d="m 9.211,765.213 305.516,0"
   style="fill:#02a4d3;fill-opacity:0.66274498;fill-rule:nonzero;stroke:none"
   id="path18678"
   inkscape:connector-curvature="0" /><g
   id="g18680"
   transform="matrix(0.880029,0,0,-1,0,878.12744)"><path
     d="m 10.467,112.914 347.165,0"
     style="fill:none;stroke:#000000;stroke-width:0.5;stroke-linecap:butt;stroke-linejoin:round;stroke-miterlimit:10;stroke-opacity:1;stroke-dasharray:none"
     id="path18682"
     inkscape:connector-curvature="0" /></g><path
   d="m 516.781,765.057 c -68.945,2.645 -98.445,13.004 -125.523,44.086 -4.492,5.152 -11.137,13.766 -14.774,19.141 -12.039,17.793 -14.074,20.523 -16.82,22.527 l -2.719,1.988 -1.429,-2.054 c -2.477,-3.555 -3.043,-10.786 -3.801,-48.325 -0.664,-32.972 -0.977,-38.613 -2.059,-37.328 -0.703,0.832 1.196,74.215 2.055,79.289 0.992,5.891 3.195,9.953 5.391,9.953 2.734,0 7.351,-5.312 17.386,-20.003 17.176,-25.149 29.93,-38.293 46.301,-47.731 29.481,-17 60.598,-20.637 176.598,-20.648 38.261,-0.008 58.199,-0.328 58.199,-0.938 0,-1.078 -110.524,-1.043 -138.805,0.043 z"
   style="fill:#d40000;fill-opacity:1;fill-rule:nonzero;stroke:none"
   id="path18684"
   inkscape:connector-curvature="0" /><g
   id="g18686"
   transform="matrix(1,0,0,-1,0,878.12744)"><path
     d="m 349.656,113.035 c -0.703,-0.832 1.196,-74.215 2.055,-79.289 0.992,-5.891 3.195,-9.953 5.391,-9.953 2.734,0 7.351,5.312 17.386,20.004 17.176,25.148 29.93,38.293 46.301,47.73 29.481,17 60.598,20.637 176.598,20.649 38.261,0.008 58.199,0.328 58.199,0.937 -91.051,0.086 -253.52,0.864 -305.93,-0.078 z"
     style="fill:#02a4d3;fill-opacity:1;fill-rule:nonzero;stroke:#4d4d4d;stroke-width:2.4000001;stroke-linecap:butt;stroke-linejoin:miter;stroke-miterlimit:4;stroke-opacity:1;stroke-dasharray:none"
     id="path18688"
     inkscape:connector-curvature="0" /></g><g
   id="g18690"
   transform="matrix(1,0,0,-1,0,878.12744)"><path
     d="m 348.93,113.082 347.168,0"
     style="fill:none;stroke:#000000;stroke-width:2;stroke-linecap:butt;stroke-linejoin:round;stroke-miterlimit:10;stroke-opacity:1;stroke-dasharray:none"
     id="path18692"
     inkscape:connector-curvature="0" /></g><g
   id="g18694"
   transform="matrix(1,0,0,-1,0,878.12744)"><path
     d="m 348.93,113.082 0,-112.914"
     style="fill:none;stroke:#000000;stroke-width:2;stroke-linecap:butt;stroke-linejoin:round;stroke-miterlimit:10;stroke-opacity:1;stroke-dasharray:none"
     id="path18696"
     inkscape:connector-curvature="0" /></g><g
   id="g18698"
   transform="matrix(1,0,0,-1,0,878.12744)"><path
     d="m 348.93,113.082 347.168,0"
     style="fill:none;stroke:#000000;stroke-width:2;stroke-linecap:butt;stroke-linejoin:round;stroke-miterlimit:10;stroke-opacity:1;stroke-dasharray:none"
     id="path18700"
     inkscape:connector-curvature="0" /></g><g
   id="g18702"
   transform="matrix(1,0,0,-1,0,878.12744)"><path
     d="m 348.93,113.082 0,-112.914"
     style="fill:none;stroke:#000000;stroke-width:2;stroke-linecap:butt;stroke-linejoin:round;stroke-miterlimit:10;stroke-opacity:1;stroke-dasharray:none"
     id="path18704"
     inkscape:connector-curvature="0" /></g><g
   id="g18706"
   transform="matrix(1,0,0,-1,0,878.12744)"><path
     d="m 348.93,0.168 0,3.414"
     style="fill:none;stroke:#000000;stroke-width:2;stroke-linecap:butt;stroke-linejoin:round;stroke-miterlimit:10;stroke-opacity:1;stroke-dasharray:none"
     id="path18708"
     inkscape:connector-curvature="0" /></g><g
   id="g18710"
   transform="matrix(1,0,0,-1,0,878.12744)"><path
     d="m 348.93,113.082 0,-112.914"
     style="fill:none;stroke:#000000;stroke-width:2;stroke-linecap:butt;stroke-linejoin:round;stroke-miterlimit:10;stroke-opacity:1;stroke-dasharray:none"
     id="path18712"
     inkscape:connector-curvature="0" /></g><g
   id="g18714"
   transform="matrix(1,0,0,-1,0,878.12744)"><path
     d="m 348.93,113.082 347.168,0"
     style="fill:none;stroke:#000000;stroke-width:2;stroke-linecap:butt;stroke-linejoin:round;stroke-miterlimit:10;stroke-opacity:1;stroke-dasharray:none"
     id="path18716"
     inkscape:connector-curvature="0" /></g><g
   id="g18718"
   transform="matrix(1,0,0,-1,0,878.12744)"><path
     d="m 188.75,535.109 76.125,0 0,-41.48 52.406,0 0,41.48 25.403,0 0,-41.48 53.05,0 0,41.48 49.961,0"
     style="fill:none;stroke:#0000ff;stroke-width:3.20000005;stroke-linecap:butt;stroke-linejoin:miter;stroke-miterlimit:4;stroke-opacity:1;stroke-dasharray:3.2, 3.2;stroke-dashoffset:0"
     id="path18720"
     inkscape:connector-curvature="0" /></g><g
   id="g18722"
   transform="matrix(1,0,0,-1,0,878.12744)"><path
     d="m 187.199,493.199 0,42.703 257.668,0"
     style="fill:none;stroke:#000000;stroke-width:1.60000002;stroke-linecap:butt;stroke-linejoin:miter;stroke-miterlimit:4;stroke-opacity:1;stroke-dasharray:none"
     id="path18724"
     inkscape:connector-curvature="0" /></g><g
   id="g18726"
   transform="matrix(1,0,0,-1,0,878.12744)"><path
     d="m 187.199,621.199 0,42.703 257.668,0"
     style="fill:none;stroke:#000000;stroke-width:1.60000002;stroke-linecap:butt;stroke-linejoin:miter;stroke-miterlimit:4;stroke-opacity:1;stroke-dasharray:none"
     id="path18728"
     inkscape:connector-curvature="0" /></g><g
   id="g18730"
   transform="matrix(1,0,0,-1,0,878.12744)"><path
     d="m 188.762,453.914 49.566,0 0,-40.816 52.383,0 0,40.816 26.121,0 0,-40.816 25.047,0 0,40.816 53.457,0 0,-40.816 26.043,0 0,40.816 24.309,0"
     style="fill:none;stroke:#0000ff;stroke-width:3.20000005;stroke-linecap:butt;stroke-linejoin:miter;stroke-miterlimit:4;stroke-opacity:1;stroke-dasharray:3.2, 3.2;stroke-dashoffset:0"
     id="path18732"
     inkscape:connector-curvature="0" /></g><g
   id="g18734"
   transform="matrix(1,0,0,-1,0,878.12744)"><path
     d="m 188.41,662.387 102.258,0 0,-42.125 27.16,0 0,42.125 50.82,0 0,-42.125 26.508,0 0,42.125 25.567,0 0,-42.125 23.336,0"
     style="fill:none;stroke:#0000ff;stroke-width:3.20000005;stroke-linecap:butt;stroke-linejoin:miter;stroke-miterlimit:4;stroke-opacity:1;stroke-dasharray:3.2, 3.2;stroke-dashoffset:0"
     id="path18736"
     inkscape:connector-curvature="0" /></g><g
   id="g18738"
   transform="matrix(1,0,0,-1,0,878.12744)"><path
     d="m 317.133,718.723 26.305,0 0,9.125 25.851,0 0,-26.067 26.074,0 0,34.301 25.852,0 0,-15.109 26.539,0 m -258.961,124.445 23.793,0 0,-19.215 26.535,0 0,-16.473 25.621,0 0,-72.707 52.199,0 0.192,-18.3"
     style="fill:none;stroke:#0000ff;stroke-width:3.20000005;stroke-linecap:butt;stroke-linejoin:miter;stroke-miterlimit:4;stroke-opacity:1;stroke-dasharray:3.2, 3.2;stroke-dashoffset:0"
     id="path18740"
     inkscape:connector-curvature="0" /></g><g
   id="g18742"
   transform="matrix(1,0,0,-1,0,878.12744)"><path
     d="m 187.199,413.125 0,42.703 257.668,0"
     style="fill:none;stroke:#000000;stroke-width:1.60000002;stroke-linecap:butt;stroke-linejoin:miter;stroke-miterlimit:4;stroke-opacity:1;stroke-dasharray:none"
     id="path18744"
     inkscape:connector-curvature="0" /></g><text
   transform="matrix(1,0,0,-1,167.35724,470.12025)"
   id="text18746"><tspan
     style="font-size:28.92881775px;font-variant:normal;font-weight:normal;writing-mode:lr-tb;fill:#000000;fill-opacity:1;fill-rule:nonzero;stroke:none;font-family:Arial;-inkscape-font-specification:ArialMT"
     x="0 8.0132828 24.878784"
     y="0"
     sodipodi:role="line"
     id="tspan18748">t=0</tspan></text>


<g
   id="g18750"
   transform="matrix(1,0,0,-1,0,878.12744)"><path
     d="m 187.641,412.832 0,386.098 0,-386.098 z"
     style="fill:#0000ff;fill-opacity:1;fill-rule:nonzero;stroke:#ff0000;stroke-width:2.4000001;stroke-linecap:butt;stroke-linejoin:miter;stroke-miterlimit:4;stroke-opacity:1;stroke-dasharray:none"
     id="path18752"
     inkscape:connector-curvature="0" /></g><text
   transform="matrix(1,0,0,-1,89.806963,431.79489)"
   id="text18754"><tspan
     style="font-size:32px;font-variant:normal;font-weight:normal;writing-mode:lr-tb;fill:#000000;fill-opacity:1;fill-rule:nonzero;stroke:none;font-family:Arial;-inkscape-font-specification:ArialMT"
     x="0 8.8640003 19.52 26.656 44.448002 51.584 60.416"
     y="0"
     sodipodi:role="line"
     id="tspan18756">trial 1</tspan><tspan
     style="font-size:32px;font-variant:normal;font-weight:normal;writing-mode:lr-tb;fill:#000000;fill-opacity:1;fill-rule:nonzero;stroke:none;font-family:Arial;-inkscape-font-specification:ArialMT"
     x="-1.0252384 7.8387618 18.494762 25.630762 43.42276 50.558762 59.390762"
     y="81.385536"
     sodipodi:role="line"
     id="tspan18758">trial 2</tspan><tspan
     style="font-size:32px;font-variant:normal;font-weight:normal;writing-mode:lr-tb;fill:#000000;fill-opacity:1;fill-rule:nonzero;stroke:none;font-family:Arial;-inkscape-font-specification:ArialMT"
     sodipodi:role="line"
     id="tspan18760"
     y="206.95966"
     x="-8.5861988 0.2778016 10.933802 18.069801 35.861801 42.997803 51.829803">trial n</tspan></text>


<text
   transform="matrix(1,0,0,-1,125.40492,322.68913)"
   id="text18762"><tspan
     style="font-size:19.20000076px;font-variant:normal;font-weight:bold;writing-mode:lr-tb;fill:#000000;fill-opacity:1;fill-rule:nonzero;stroke:none;font-family:Arial Bold;-inkscape-font-specification:Arial-BoldMT"
     x="0"
     y="0"
     id="tspan18764">.</tspan><tspan
     style="font-size:19.20000076px;font-variant:normal;font-weight:bold;writing-mode:lr-tb;fill:#000000;fill-opacity:1;fill-rule:nonzero;stroke:none;font-family:Arial Bold;-inkscape-font-specification:Arial-BoldMT"
     x="0"
     y="24"
     id="tspan18766">.</tspan><tspan
     style="font-size:19.20000076px;font-variant:normal;font-weight:bold;writing-mode:lr-tb;fill:#000000;fill-opacity:1;fill-rule:nonzero;stroke:none;font-family:Arial Bold;-inkscape-font-specification:Arial-BoldMT"
     x="0"
     y="48"
     id="tspan18768">.</tspan></text>


<text
   transform="matrix(0,1,1,0,172.22403,61.360611)"
   id="text18770"><tspan
     style="font-size:32px;font-variant:normal;font-weight:normal;writing-mode:lr-tb;fill:#000000;fill-opacity:1;fill-rule:nonzero;stroke:none;font-family:Arial;-inkscape-font-specification:ArialMT"
     x="0 17.792 28.48 44.48 62.304001 69.407997 76.543999 85.375999"
     y="0"
     sodipodi:role="line"
     id="tspan18772">p(split)</tspan></text>


<text
   transform="matrix(1,0,0,-1,266.45489,6.734342)"
   id="text18774"><tspan
     style="font-size:32px;font-variant:normal;font-weight:normal;writing-mode:lr-tb;fill:#000000;fill-opacity:1;fill-rule:nonzero;stroke:none;font-family:Arial;-inkscape-font-specification:ArialMT"
     x="0 8.8640003 15.968 42.720001 60.512001 71.199997 87.199997"
     y="0"
     sodipodi:role="line"
     id="tspan18776">time(s)</tspan></text>


<g
   id="g18778"
   transform="matrix(0.288238,0,0,-1,0,878.12744)"><path
     d="m 651.859,697.57 0,148.157 893.941,0"
     style="fill:none;stroke:#000000;stroke-width:5.55096483;stroke-linecap:butt;stroke-linejoin:miter;stroke-miterlimit:4;stroke-opacity:1;stroke-dasharray:none"
     id="path18780"
     inkscape:connector-curvature="0" /></g><g
   id="g18782"
   transform="matrix(1,0,0,-1,0,878.12744)"><path
     d="m 190.246,843.391 c 0,0 15.664,0 37.203,-9.793 21.539,-9.789 54.828,-70.493 74.41,-92.032 19.582,-21.539 60.703,-33.289 135.114,-27.414"
     style="fill:none;stroke:#ff0000;stroke-width:1.60000002;stroke-linecap:butt;stroke-linejoin:miter;stroke-miterlimit:4;stroke-opacity:1;stroke-dasharray:none"
     id="path18784"
     inkscape:connector-curvature="0" /></g><g
   id="g18786"
   transform="matrix(1,0,0,-1,0,878.12744)"><path
     d="m 3.195,312.398 286.559,-0.238 -0.695,-81.312 62.8623,0 85.9807,0 0.692,80.738 138.218,-0.117 -0.812,-80.5 152.734,1.144"
     style="fill:none;stroke:#0000ff;stroke-width:3.20000005;stroke-linecap:butt;stroke-linejoin:miter;stroke-miterlimit:4;stroke-opacity:1;stroke-dasharray:3.2, 3.2;stroke-dashoffset:0"
     id="path18788"
     inkscape:connector-curvature="0"
     sodipodi:nodetypes="ccccccccc" /></g><g
   id="g19112"
   transform="matrix(0.56109122,0,0,0.56109122,11.808031,335.29787)"><text
   id="text18790"
   transform="scale(1,-1)"
   x="38.574715"
   y="-705.87634"
   style="font-size:12px"><tspan
     id="tspan18792"
     y="-705.87634"
     x="38.574715"
     style="font-size:68.4380722px;font-variant:normal;font-weight:normal;writing-mode:lr-tb;fill:#000000;fill-opacity:1;fill-rule:nonzero;stroke:none;font-family:Arial;-inkscape-font-specification:ArialMT">T</tspan></text>


<text
   id="text18794"
   transform="scale(1,-1)"
   style="font-size:45.62538147px"
   x="73.958527"
   y="-695.30078"><tspan
     id="tspan18796"
     sodipodi:role="line"
     y="-695.30078"
     x="73.958527 93.068832"
     style="font-size:45.62538147px;font-variant:normal;font-weight:normal;writing-mode:lr-tb;fill:#000000;fill-opacity:1;fill-rule:nonzero;stroke:none;font-family:Arial;-inkscape-font-specification:ArialMT">0 </tspan></text>


<text
   id="text18798"
   transform="scale(1,-1)"
   x="102.62344"
   y="-705.87634"
   style="font-size:12px"><tspan
     id="tspan18800"
     sodipodi:role="line"
     y="-705.87634"
     x="102.62344"
     style="font-size:68.4380722px;font-variant:normal;font-weight:normal;writing-mode:lr-tb;fill:#000000;fill-opacity:1;fill-rule:nonzero;stroke:none;font-family:Arial;-inkscape-font-specification:ArialMT">(s) </tspan></text>


</g><g
   id="g19120"
   transform="matrix(0.52954163,0,0,0.52954163,176.21238,357.74139)"><text
   id="text18802"
   transform="scale(1,-1)"
   x="380.37799"
   y="-701.9942"
   style="font-size:12px"><tspan
     id="tspan18804"
     y="-701.9942"
     x="380.37799"
     style="font-size:72.51554871px;font-variant:normal;font-weight:normal;writing-mode:lr-tb;fill:#000000;fill-opacity:1;fill-rule:nonzero;stroke:none;font-family:Arial;-inkscape-font-specification:ArialMT">T</tspan></text>


<text
   id="text18806"
   transform="scale(1,-1)"
   style="font-size:48.34369659px"
   x="415.76016"
   y="-690.49219"><tspan
     id="tspan18808"
     y="-690.49219"
     x="415.76016"
     style="font-size:48.34369659px;font-variant:normal;font-weight:normal;writing-mode:lr-tb;fill:#000000;fill-opacity:1;fill-rule:nonzero;stroke:none;font-family:Arial;-inkscape-font-specification:ArialMT">1</tspan></text>


<text
   id="text18810"
   transform="scale(1,-1)"
   x="452.49881"
   y="-701.9942"
   style="font-size:12px"><tspan
     id="tspan18812"
     sodipodi:role="line"
     y="-701.9942"
     x="452.49881"
     style="font-size:72.51554871px;font-variant:normal;font-weight:normal;writing-mode:lr-tb;fill:#000000;fill-opacity:1;fill-rule:nonzero;stroke:none;font-family:Arial;-inkscape-font-specification:ArialMT">(s) </tspan></text>


</g><text
   transform="scale(1.0046039,-0.99541721)"
   id="text18814"
   x="1149.6537"
   y="-835.32599"
   style="font-size:11.94500732px;text-align:center;text-anchor:middle"><tspan
     style="font-size:44.79999924px;font-variant:normal;font-weight:normal;text-align:center;writing-mode:lr-tb;text-anchor:middle;fill:#000000;fill-opacity:1;fill-rule:nonzero;stroke:none;font-family:Arial;-inkscape-font-specification:ArialMT"
     x="1155.8662"
     y="-835.32599"
     sodipodi:role="line"
     id="tspan18816">Take alternating samples from </tspan><tspan
     style="font-size:44.79999924px;font-variant:normal;font-weight:normal;text-align:center;writing-mode:lr-tb;text-anchor:middle;fill:#000000;fill-opacity:1;fill-rule:nonzero;stroke:none;font-family:Arial;-inkscape-font-specification:ArialMT"
     x="1155.8662"
     y="-779.32599"
     sodipodi:role="line"
     id="tspan18818">duration distributions for </tspan><tspan
     style="font-size:44.79999924px;font-variant:normal;font-weight:normal;text-align:center;writing-mode:lr-tb;text-anchor:middle;fill:#000000;fill-opacity:1;fill-rule:nonzero;stroke:none;font-family:Arial;-inkscape-font-specification:ArialMT"
     x="1155.8662"
     y="-723.32599"
     sodipodi:role="line"
     id="tspan18820">grouped and split percepts to </tspan><tspan
     style="font-size:44.79999924px;font-variant:normal;font-weight:normal;text-align:center;writing-mode:lr-tb;text-anchor:middle;fill:#000000;fill-opacity:1;fill-rule:nonzero;stroke:none;font-family:Arial;-inkscape-font-specification:ArialMT"
     x="1149.6537"
     y="-667.32599"
     sodipodi:role="line"
     id="tspan16647">construct simulated perceptual</tspan><tspan
     style="font-size:44.79999924px;font-variant:normal;font-weight:normal;text-align:center;writing-mode:lr-tb;text-anchor:middle;fill:#000000;fill-opacity:1;fill-rule:nonzero;stroke:none;font-family:Arial;-inkscape-font-specification:ArialMT"
     x="1149.6537"
     y="-611.32599"
     sodipodi:role="line"
     id="tspan16649">timecourse for a trial</tspan></text>


<text
   transform="scale(0.97151215,-1.0293232)"
   id="text18822"
   x="1188.1984"
   y="-474.08807"
   style="font-size:11.6581459px;text-align:center;text-anchor:middle"><tspan
     style="font-size:44.80000305px;font-variant:normal;font-weight:normal;text-align:center;writing-mode:lr-tb;text-anchor:middle;fill:#000000;fill-opacity:1;fill-rule:nonzero;stroke:none;font-family:Arial;-inkscape-font-specification:ArialMT"
     x="1194.4109"
     y="-474.08807"
     sodipodi:role="line"
     id="tspan18824">Assign a value of 0 to timepoints </tspan><tspan
     style="font-size:44.80000305px;font-variant:normal;font-weight:normal;text-align:center;writing-mode:lr-tb;text-anchor:middle;fill:#000000;fill-opacity:1;fill-rule:nonzero;stroke:none;font-family:Arial;-inkscape-font-specification:ArialMT"
     x="1194.4109"
     y="-418.08807"
     sodipodi:role="line"
     id="tspan18826">from grouped durations and a value </tspan><tspan
     style="font-size:44.80000305px;font-variant:normal;font-weight:normal;text-align:center;writing-mode:lr-tb;text-anchor:middle;fill:#000000;fill-opacity:1;fill-rule:nonzero;stroke:none;font-family:Arial;-inkscape-font-specification:ArialMT"
     x="1188.1984"
     y="-362.08807"
     sodipodi:role="line"
     id="tspan18828">of 1 to timepoints from split durations</tspan><tspan
     style="font-size:44.80000305px;font-variant:normal;font-weight:normal;text-align:center;writing-mode:lr-tb;text-anchor:middle;fill:#000000;fill-opacity:1;fill-rule:nonzero;stroke:none;font-family:Arial;-inkscape-font-specification:ArialMT"
     x="1194.4109"
     y="-306.08807"
     sodipodi:role="line"
     id="tspan18838"> </tspan></text>


<flowRoot
   xml:space="preserve"
   id="flowRoot3247"
   style="font-size:48px;font-style:normal;font-variant:normal;font-weight:normal;font-stretch:normal;text-align:center;line-height:125%;letter-spacing:0px;word-spacing:0px;writing-mode:lr-tb;text-anchor:middle;fill:#000000;fill-opacity:1;stroke:none;font-family:Arial;-inkscape-font-specification:Arial"
   transform="matrix(0.8,0,0,-0.8,24.338512,878.12744)"><flowRegion
     id="flowRegion3249"><rect
       id="rect3251"
       width="779.25433"
       height="247.18282"
       x="1022.2476"
       y="821.14972"
       style="font-size:48px;font-style:normal;font-variant:normal;font-weight:normal;font-stretch:normal;text-align:center;text-anchor:middle;font-family:Arial;-inkscape-font-specification:Arial" /></flowRegion><flowPara
     id="flowPara3253"
     style="font-size:56px">Take the average at each timepoint over many trials to obtain the buildup function (blue)</flowPara></flowRoot></g></g></svg>