<?xml version="1.0" encoding="UTF-8" standalone="no"?>
<!-- Created with Inkscape (http://www.inkscape.org/) -->

<svg
   xmlns:dc="http://purl.org/dc/elements/1.1/"
   xmlns:cc="http://creativecommons.org/ns#"
   xmlns:rdf="http://www.w3.org/1999/02/22-rdf-syntax-ns#"
   xmlns:svg="http://www.w3.org/2000/svg"
   xmlns="http://www.w3.org/2000/svg"
   xmlns:sodipodi="http://sodipodi.sourceforge.net/DTD/sodipodi-0.dtd"
   xmlns:inkscape="http://www.inkscape.org/namespaces/inkscape"
   id="svg6060"
   version="1.1"
   inkscape:version="0.48.1 r9760"
   width="1052.3622"
   height="744.09447"
   xml:space="preserve"
   sodipodi:docname="3methodBUF.pdf"><metadata
     id="metadata6066"><rdf:RDF><cc:Work
         rdf:about=""><dc:format>image/svg+xml</dc:format><dc:type
           rdf:resource="http://purl.org/dc/dcmitype/StillImage" /><dc:title></dc:title></cc:Work></rdf:RDF></metadata><defs
     id="defs6064"><clipPath
       clipPathUnits="userSpaceOnUse"
       id="clipPath6092"><path
         d="m 295.609,366.338 137.383,0 0,-38.582 -137.383,0 0,38.582 z"
         id="path6094" /></clipPath><clipPath
       clipPathUnits="userSpaceOnUse"
       id="clipPath6100"><path
         d="M 0,0 842,0 842,596 0,596 0,0 z"
         id="path6102" /></clipPath><clipPath
       clipPathUnits="userSpaceOnUse"
       id="clipPath6118"><path
         d="m 295.609,291.885 137.383,0 0,-38.406 -137.383,0 0,38.406 z"
         id="path6120" /></clipPath><clipPath
       clipPathUnits="userSpaceOnUse"
       id="clipPath6126"><path
         d="M 0,0 842,0 842,596 0,596 0,0 z"
         id="path6128" /></clipPath></defs><sodipodi:namedview
     pagecolor="#ffffff"
     bordercolor="#666666"
     borderopacity="1"
     objecttolerance="10"
     gridtolerance="10"
     guidetolerance="10"
     inkscape:pageopacity="0"
     inkscape:pageshadow="2"
     inkscape:window-width="640"
     inkscape:window-height="480"
     id="namedview6062"
     showgrid="false"
     inkscape:zoom="0.49795283"
     inkscape:cx="445.8522"
     inkscape:cy="372.04724"
     inkscape:window-x="0"
     inkscape:window-y="0"
     inkscape:window-maximized="0"
     inkscape:current-layer="g6068" /><g
     id="g6068"
     inkscape:groupmode="layer"
     inkscape:label="3methodBUF"
     transform="matrix(1.25,0,0,-1.25,0,744.09447)"><g
       id="g6070"
       transform="translate(49.6,0)"><text
         transform="matrix(1,0,0,-1,48.649762,542.24579)"
         id="text6072"><tspan
           style="font-size:32px;font-variant:normal;font-weight:normal;writing-mode:lr-tb;fill:#000000;fill-opacity:1;fill-rule:nonzero;stroke:none;font-family:Arial;-inkscape-font-specification:ArialMT"
           x="0 17.792 26.656 49.824001 67.648003 83.648003 99.648003 108.48 117.344 135.136 144 170.752 188.54401 204.54401 222.368 231.2 249.024 266.81601 273.952 281.056 298.88 316.672 334.496 343.328 352.19199 369.98401 387.80801 403.80801 412.64001 419.776 437.56799"
           y="0"
           sodipodi:role="line"
           id="tspan6074">3 ways to make buildup function</tspan></text>
<text
         transform="matrix(1,0,0,-1,48.649762,462.24579)"
         id="text6076"><tspan
           style="font-size:32px;font-variant:normal;font-weight:normal;writing-mode:lr-tb;fill:#0000ff;fill-opacity:1;fill-rule:nonzero;stroke:none;font-family:Arial;-inkscape-font-specification:ArialMT"
           x="0 21.344 37.344002 48.032001 65.823997 81.823997 97.823997 106.688 115.52 126.208 133.34399 151.136 158.272"
           y="0"
           sodipodi:role="line"
           id="tspan6078">Across trials</tspan></text>
<text
         transform="matrix(1,0,0,-1,291.28945,462.24579)"
         id="text6080"><tspan
           style="font-size:32px;font-variant:normal;font-weight:normal;writing-mode:lr-tb;fill:#ff00fe;fill-opacity:1;fill-rule:nonzero;stroke:none;font-family:Arial;-inkscape-font-specification:ArialMT"
           x="0 21.344 44.512001 51.647999 60.48 76.480003 94.304001 103.136 112 122.688 129.79201 147.616 165.408 183.23199 193.92 211.71201 229.536 238.368 256.19199 272.25601 290.048 300.73599 318.56 336.35199"
           y="0"
           sodipodi:role="line"
           id="tspan6082">Switch triggered average</tspan></text>
<g
         id="g6084"
         transform="matrix(1,0,0,-1,0,595.27557)"><path
           d="m 294.539,191.215 45.688,0 0,-35.559 19.128,0 0,35.559 51,0 0,-35.559 34,0 0,35.559 23.375,0 0,-35.559 37.188,0 0,35.559 33.953,0 -0.609,-35.559 27.476,0 0,35.559 43.641,0 0,-35.559 38.789,0 0,35.559 78.777,0"
           style="fill:none;stroke:#0000fe;stroke-width:1.60000002;stroke-linecap:butt;stroke-linejoin:miter;stroke-miterlimit:4;stroke-opacity:1;stroke-dasharray:none"
           id="path6086"
           inkscape:connector-curvature="0" /></g></g><g
       id="g6088"><g
         id="g6090"
         clip-path="url(#clipPath6092)"><g
           id="g6096"
           transform="translate(0,-0.724426)"><g
             id="g6098" /><g
             id="g6104"><g
               clip-path="url(#clipPath6100)"
               id="g6106"><g
                 id="g6108"><g
                   transform="matrix(1,0,0,-1,0,596)"
                   id="g6110"><path
                     d="m 294.539,265.883 51,0 0,-35.559 34.004,0 0,35.559 23.375,0 0,-35.559 37.187,0 0,35.559 33.954,0 -0.61,-35.559 27.477,0 0,35.559 43.64,0 0,-35.559 38.789,0 0,35.559 78.774,0 0,-35.559 32.324,0 0,35.559 46.871,0 -3.23,0"
                     style="fill:none;stroke:#0000fe;stroke-opacity:1;stroke-width:1.6;stroke-linecap:butt;stroke-linejoin:miter;stroke-miterlimit:4;stroke-dasharray:none"
                     id="path6112" /></g></g></g></g></g></g></g><g
       id="g6114"><g
         id="g6116"
         clip-path="url(#clipPath6118)"><g
           id="g6122"
           transform="translate(0,-0.724426)"><g
             id="g6124" /><g
             id="g6130"><g
               clip-path="url(#clipPath6126)"
               id="g6132"><g
                 id="g6134"><g
                   transform="matrix(1,0,0,-1,0,596)"
                   id="g6136"><path
                     d="m 294.539,340.547 23.375,0 0,-35.555 37.191,0 0,35.555 33.95,0 -0.606,-35.555 27.477,0 0,35.555 43.636,0 0,-35.555 38.79,0 0,35.555 78.777,0 0,-35.555 32.324,0 0,35.555 46.871,0 -3.234,0"
                     style="fill:none;stroke:#0000fe;stroke-opacity:1;stroke-width:1.6;stroke-linecap:butt;stroke-linejoin:miter;stroke-miterlimit:4;stroke-dasharray:none"
                     id="path6138" /></g></g></g></g></g></g></g><g
       id="g6140"><text
         transform="matrix(1,0,0,-1,244.79592,397.56356)"
         id="text6142"><tspan
           style="font-size:19.20000076px;font-variant:normal;font-weight:normal;writing-mode:lr-tb;fill:#000000;fill-opacity:1;fill-rule:nonzero;stroke:none;font-family:Arial;-inkscape-font-specification:ArialMT"
           x="0 10.6752 15.9936 25.593599 30.912001"
           y="0"
           sodipodi:role="line"
           id="tspan6144">1 str</tspan><tspan
           style="font-size:19.20000076px;font-variant:normal;font-weight:normal;writing-mode:lr-tb;fill:#000000;fill-opacity:1;fill-rule:nonzero;stroke:none;font-family:Arial;-inkscape-font-specification:ArialMT"
           x="1.5281242 12.203324 17.521725 27.121725 32.440125"
           y="-35.589851"
           sodipodi:role="line"
           id="tspan6146">2 str</tspan></text>
<path
         d="m 301.324,439.619 125.953,0 c 3.164,0 5.715,-2.55 5.715,-5.715 l 0,-24.128 c 0,-3.164 -2.551,-5.715 -5.715,-5.715 l -125.953,0 c -3.164,0 -5.715,2.551 -5.715,5.715 l 0,24.128 c 0,3.165 2.551,5.715 5.715,5.715 z"
         style="fill:#ff0000;fill-opacity:0.29951704;fill-rule:nonzero;stroke:none"
         id="path6148"
         inkscape:connector-curvature="0" /><g
         id="g6150"
         transform="matrix(1,0,0,-1,0,595.27557)"><path
           d="m 301.324,155.656 125.953,0 c 3.164,0 5.715,2.551 5.715,5.715 l 0,24.129 c 0,3.164 -2.551,5.715 -5.715,5.715 l -125.953,0 c -3.164,0 -5.715,-2.551 -5.715,-5.715 l 0,-24.129 c 0,-3.164 2.551,-5.715 5.715,-5.715 z"
           style="fill:none;stroke:#000000;stroke-width:1.30400002;stroke-linecap:butt;stroke-linejoin:miter;stroke-miterlimit:4;stroke-opacity:1;stroke-dasharray:3.912, 3.912;stroke-dashoffset:0"
           id="path6152"
           inkscape:connector-curvature="0" /></g><g
         id="g6154"
         transform="matrix(1,0,0,-1,0,595.27557)"><path
           d="m 360,200.957 0,-5.883"
           style="fill:#fe0000;fill-opacity:1;fill-rule:nonzero;stroke:#fa0000;stroke-width:1.202636;stroke-linecap:butt;stroke-linejoin:miter;stroke-miterlimit:4;stroke-opacity:1;stroke-dasharray:none"
           id="path6156"
           inkscape:connector-curvature="0" /></g><g
         id="g6158"
         transform="matrix(0,-1,-1,0,0,595.27557)"><path
           d="m 197.391,-358.543 -3.942,-1.453 3.942,-1.449 c -0.629,0.855 -0.625,2.027 0,2.902 z"
           style="fill:#fa0000;fill-opacity:1;fill-rule:evenodd;stroke:#fa0000;stroke-width:0.225494;stroke-linecap:butt;stroke-linejoin:round;stroke-miterlimit:4;stroke-opacity:1;stroke-dasharray:none"
           id="path6160"
           inkscape:connector-curvature="0" /></g><g
         id="g6162"
         transform="matrix(1,0,0,-1,0,595.27557)"><path
           d="m 444.801,200.957 0,-5.883"
           style="fill:#fe0000;fill-opacity:1;fill-rule:nonzero;stroke:#fa0000;stroke-width:1.202636;stroke-linecap:butt;stroke-linejoin:miter;stroke-miterlimit:4;stroke-opacity:1;stroke-dasharray:none"
           id="path6164"
           inkscape:connector-curvature="0" /></g><g
         id="g6166"
         transform="matrix(0,-1,-1,0,0,595.27557)"><path
           d="m 197.391,-443.344 -3.942,-1.449 3.942,-1.449 c -0.629,0.855 -0.625,2.023 0,2.898 z"
           style="fill:#fa0000;fill-opacity:1;fill-rule:evenodd;stroke:#fa0000;stroke-width:0.225494;stroke-linecap:butt;stroke-linejoin:round;stroke-miterlimit:4;stroke-opacity:1;stroke-dasharray:none"
           id="path6168"
           inkscape:connector-curvature="0" /></g><g
         id="g6170"
         transform="matrix(1,0,0,-1,0,595.27557)"><path
           d="m 505.602,200.957 0,-5.883"
           style="fill:#fe0000;fill-opacity:1;fill-rule:nonzero;stroke:#fa0000;stroke-width:1.202636;stroke-linecap:butt;stroke-linejoin:miter;stroke-miterlimit:4;stroke-opacity:1;stroke-dasharray:none"
           id="path6172"
           inkscape:connector-curvature="0" /></g><g
         id="g6174"
         transform="matrix(0,-1,-1,0,0,595.27557)"><path
           d="m 197.391,-504.145 -3.942,-1.449 3.942,-1.449 c -0.629,0.855 -0.625,2.027 0,2.898 z"
           style="fill:#fa0000;fill-opacity:1;fill-rule:evenodd;stroke:#fa0000;stroke-width:0.225494;stroke-linecap:butt;stroke-linejoin:round;stroke-miterlimit:4;stroke-opacity:1;stroke-dasharray:none"
           id="path6176"
           inkscape:connector-curvature="0" /></g><g
         id="g6178"
         transform="matrix(1,0,0,-1,0,595.27557)"><path
           d="m 566.398,200.957 0,-5.883"
           style="fill:#fe0000;fill-opacity:1;fill-rule:nonzero;stroke:#fa0000;stroke-width:1.202636;stroke-linecap:butt;stroke-linejoin:miter;stroke-miterlimit:4;stroke-opacity:1;stroke-dasharray:none"
           id="path6180"
           inkscape:connector-curvature="0" /></g><g
         id="g6182"
         transform="matrix(0,-1,-1,0,0,595.27557)"><path
           d="m 197.391,-564.945 -3.942,-1.45 3.942,-1.449 c -0.629,0.856 -0.625,2.028 0,2.899 z"
           style="fill:#fa0000;fill-opacity:1;fill-rule:evenodd;stroke:#fa0000;stroke-width:0.225494;stroke-linecap:butt;stroke-linejoin:round;stroke-miterlimit:4;stroke-opacity:1;stroke-dasharray:none"
           id="path6184"
           inkscape:connector-curvature="0" /></g><g
         id="g6186"
         transform="matrix(1,0,0,-1,0,595.27557)"><path
           d="m 648,200.957 0,-5.883"
           style="fill:#fe0000;fill-opacity:1;fill-rule:nonzero;stroke:#fa0000;stroke-width:1.202636;stroke-linecap:butt;stroke-linejoin:miter;stroke-miterlimit:4;stroke-opacity:1;stroke-dasharray:none"
           id="path6188"
           inkscape:connector-curvature="0" /></g><g
         id="g6190"
         transform="matrix(0,-1,-1,0,0,595.27557)"><path
           d="m 197.391,-646.543 -3.942,-1.453 3.942,-1.449 c -0.629,0.855 -0.625,2.027 0,2.902 z"
           style="fill:#fa0000;fill-opacity:1;fill-rule:evenodd;stroke:#fa0000;stroke-width:0.225494;stroke-linecap:butt;stroke-linejoin:round;stroke-miterlimit:4;stroke-opacity:1;stroke-dasharray:none"
           id="path6192"
           inkscape:connector-curvature="0" /></g><g
         id="g6194"
         transform="matrix(1,0,0,-1,0,595.27557)"><path
           d="m 296.801,155.656 0,35.559 443.754,0"
           style="fill:none;stroke:#000000;stroke-width:0.80000001;stroke-linecap:butt;stroke-linejoin:miter;stroke-miterlimit:4;stroke-opacity:1;stroke-dasharray:none"
           id="path6196"
           inkscape:connector-curvature="0" /></g><text
         transform="matrix(1,0,0,-1,645.6,382.39999)"
         id="text6198"><tspan
           style="font-size:19.20000076px;font-variant:normal;font-weight:normal;writing-mode:lr-tb;fill:#000000;fill-opacity:1;fill-rule:nonzero;stroke:none;font-family:Arial;-inkscape-font-specification:ArialMT"
           x="0 5.3183999 9.5808001 25.632 36.307201 41.625599 48.038399 57.638401"
           y="0"
           sodipodi:role="line"
           id="tspan6200">time (s)</tspan></text>
<g
         id="g6202"
         transform="matrix(1,0,0,-1,0,595.27557)"><path
           d="m 48,191.215 42.398,0 0,-35.559 36.801,0 0,35.559 18.403,0 0,-35.559 40,0"
           style="fill:none;stroke:#0000ff;stroke-width:1.60000002;stroke-linecap:butt;stroke-linejoin:miter;stroke-miterlimit:4;stroke-opacity:1;stroke-dasharray:none"
           id="path6204"
           inkscape:connector-curvature="0" /></g><g
         id="g6206"
         transform="matrix(1,0,0,-1,0,595.27557)"><path
           d="m 48,265.48 60.75,0 0.051,-35.554 18.398,0 0,35.554 38.766,0 0,-35.554 19.637,0"
           style="fill:none;stroke:#0000ff;stroke-width:1.60000002;stroke-linecap:butt;stroke-linejoin:miter;stroke-miterlimit:4;stroke-opacity:1;stroke-dasharray:none"
           id="path6208"
           inkscape:connector-curvature="0" /></g><g
         id="g6210"
         transform="matrix(1,0,0,-1,0,595.27557)"><path
           d="m 48,340.547 35.859,0 0.051,-35.555 23.492,0 0,35.555 28.016,0 0,-35.555 32.133,0.043 0.152,35.613 17.996,0"
           style="fill:none;stroke:#0000ff;stroke-width:1.60000002;stroke-linecap:butt;stroke-linejoin:miter;stroke-miterlimit:4;stroke-opacity:1;stroke-dasharray:none"
           id="path6212"
           inkscape:connector-curvature="0" /></g><text
         transform="matrix(1,0,0,-1,114.09531,193.46444)"
         id="text6214"><tspan
           style="font-size:19.20000076px;font-variant:normal;font-weight:bold;writing-mode:lr-tb;fill:#000000;fill-opacity:1;fill-rule:nonzero;stroke:none;font-family:Arial Bold;-inkscape-font-specification:Arial-BoldMT"
           x="0"
           y="0"
           id="tspan6216">.</tspan><tspan
           style="font-size:19.20000076px;font-variant:normal;font-weight:bold;writing-mode:lr-tb;fill:#000000;fill-opacity:1;fill-rule:nonzero;stroke:none;font-family:Arial Bold;-inkscape-font-specification:Arial-BoldMT"
           x="0"
           y="24"
           id="tspan6218">.</tspan><tspan
           style="font-size:19.20000076px;font-variant:normal;font-weight:bold;writing-mode:lr-tb;fill:#000000;fill-opacity:1;fill-rule:nonzero;stroke:none;font-family:Arial Bold;-inkscape-font-specification:Arial-BoldMT"
           x="0"
           y="48"
           id="tspan6220">.</tspan><tspan
           style="font-size:19.20000076px;font-variant:normal;font-weight:bold;writing-mode:lr-tb;fill:#000000;fill-opacity:1;fill-rule:nonzero;stroke:none;font-family:Arial Bold;-inkscape-font-specification:Arial-BoldMT"
           x="247.50995"
           y="0"
           id="tspan6222">.</tspan><tspan
           style="font-size:19.20000076px;font-variant:normal;font-weight:bold;writing-mode:lr-tb;fill:#000000;fill-opacity:1;fill-rule:nonzero;stroke:none;font-family:Arial Bold;-inkscape-font-specification:Arial-BoldMT"
           x="247.50995"
           y="24"
           id="tspan6224">.</tspan><tspan
           style="font-size:19.20000076px;font-variant:normal;font-weight:bold;writing-mode:lr-tb;fill:#000000;fill-opacity:1;fill-rule:nonzero;stroke:none;font-family:Arial Bold;-inkscape-font-specification:Arial-BoldMT"
           x="247.50995"
           y="48"
           id="tspan6226">.</tspan></text>
<g
         id="g6228"
         transform="matrix(1,0,0,-1,0,595.27557)"><path
           d="m 47.68,475.352 0,71.273 137.922,0"
           style="fill:none;stroke:#000000;stroke-width:0.80000001;stroke-linecap:butt;stroke-linejoin:miter;stroke-miterlimit:4;stroke-opacity:1;stroke-dasharray:none"
           id="path6230"
           inkscape:connector-curvature="0" /></g><text
         transform="matrix(1,0,0,-1,-1.604077,397.56356)"
         id="text6232"><tspan
           style="font-size:19.20000076px;font-variant:normal;font-weight:normal;writing-mode:lr-tb;fill:#000000;fill-opacity:1;fill-rule:nonzero;stroke:none;font-family:Arial;-inkscape-font-specification:ArialMT"
           x="0 10.6752 15.9936 25.593599 30.912001"
           y="0"
           sodipodi:role="line"
           id="tspan6234">1 str</tspan><tspan
           style="font-size:19.20000076px;font-variant:normal;font-weight:normal;writing-mode:lr-tb;fill:#000000;fill-opacity:1;fill-rule:nonzero;stroke:none;font-family:Arial;-inkscape-font-specification:ArialMT"
           x="1.5281242 12.203324 17.521725 27.121725 32.440125"
           y="-35.589851"
           sodipodi:role="line"
           id="tspan6236">2 str</tspan></text>
<g
         id="g6238"
         transform="matrix(1,0,0,-1,0,595.27557)"><path
           d="m 295.68,475.352 0,71.273 137.922,0"
           style="fill:none;stroke:#000000;stroke-width:0.80000001;stroke-linecap:butt;stroke-linejoin:miter;stroke-miterlimit:4;stroke-opacity:1;stroke-dasharray:none"
           id="path6240"
           inkscape:connector-curvature="0" /></g><g
         id="g6242"
         transform="matrix(1,0,0,-1,0,595.27557)"><path
           d="m 296,545.965 c 0,0 26.832,3.437 35.883,-7.738 9.051,-11.176 18.101,-21.493 32.808,-32.668 14.707,-11.172 68.911,-9.454 68.911,-9.454"
           style="fill:none;stroke:#fe00ff;stroke-width:0.69734401;stroke-linecap:butt;stroke-linejoin:miter;stroke-miterlimit:4;stroke-opacity:1;stroke-dasharray:none"
           id="path6244"
           inkscape:connector-curvature="0" /></g><g
         id="g6246"
         transform="matrix(1,0,0,-1,0,595.27557)"><path
           d="m 47.68,155.789 c 0.32,7.926 0,35.637 0,35.637 l 137.922,0"
           style="fill:none;stroke:#000000;stroke-width:0.80000001;stroke-linecap:butt;stroke-linejoin:miter;stroke-miterlimit:4;stroke-opacity:1;stroke-dasharray:none"
           id="path6248"
           inkscape:connector-curvature="0" /></g><g
         id="g6250"
         transform="matrix(1,0,0,-1,0,595.27557)"><path
           d="m 47.68,230.988 0,35.637 137.922,0"
           style="fill:none;stroke:#000000;stroke-width:0.80000001;stroke-linecap:butt;stroke-linejoin:miter;stroke-miterlimit:4;stroke-opacity:1;stroke-dasharray:none"
           id="path6252"
           inkscape:connector-curvature="0" /></g><g
         id="g6254"
         transform="matrix(1,0,0,-1,0,595.27557)"><path
           d="m 47.68,306.188 0,35.64 137.922,0"
           style="fill:none;stroke:#000000;stroke-width:0.80000001;stroke-linecap:butt;stroke-linejoin:miter;stroke-miterlimit:4;stroke-opacity:1;stroke-dasharray:none"
           id="path6256"
           inkscape:connector-curvature="0" /></g><text
         transform="matrix(1,0,0,-1,49.747012,382.40336)"
         id="text6258"><tspan
           style="font-size:19.20000076px;font-variant:normal;font-weight:normal;writing-mode:lr-tb;fill:#000000;fill-opacity:1;fill-rule:nonzero;stroke:none;font-family:Arial;-inkscape-font-specification:ArialMT"
           x="0 5.3183999 16.511999"
           y="0"
           sodipodi:role="line"
           id="tspan6260">t=0</tspan></text>
<g
         id="g6262"
         transform="matrix(1,0,0,-1,0,595.27557)"><path
           d="m 48,545.965 c 0,0 26.832,3.437 35.883,-7.738 9.051,-11.176 18.101,-21.493 32.808,-32.668 14.707,-11.172 68.911,-9.454 68.911,-9.454"
           style="fill:none;stroke:#0000ff;stroke-width:0.69734401;stroke-linecap:butt;stroke-linejoin:miter;stroke-miterlimit:4;stroke-opacity:1;stroke-dasharray:none"
           id="path6264"
           inkscape:connector-curvature="0" /></g><text
         transform="matrix(1,0,0,-1,83.316571,28.849988)"
         id="text6266"><tspan
           style="font-size:19.20000076px;font-variant:normal;font-weight:normal;writing-mode:lr-tb;fill:#000000;fill-opacity:1;fill-rule:nonzero;stroke:none;font-family:Arial;-inkscape-font-specification:ArialMT"
           x="0 5.3183999 9.5808001 25.632 36.307201 41.625599 48.038399 57.638401"
           y="0"
           sodipodi:role="line"
           id="tspan6268">time (s)</tspan></text>
<text
         transform="matrix(0,1,1,0,34.950067,55.314685)"
         id="text6270"><tspan
           style="font-size:19.20000076px;font-variant:normal;font-weight:normal;writing-mode:lr-tb;fill:#000000;fill-opacity:1;fill-rule:nonzero;stroke:none;font-family:Arial;-inkscape-font-specification:ArialMT"
           x="0 10.6752 17.087999 27.7824 33.0816 42.681599 48 54.4128"
           y="0"
           sodipodi:role="line"
           id="tspan6272">p(2 str)</tspan></text>
<g
         id="g6274"
         transform="matrix(1,0,0,-1,0,595.27557)"><path
           d="m 295.68,230.988 0,35.637 137.922,0"
           style="fill:none;stroke:#000000;stroke-width:0.80000001;stroke-linecap:butt;stroke-linejoin:miter;stroke-miterlimit:4;stroke-opacity:1;stroke-dasharray:none"
           id="path6276"
           inkscape:connector-curvature="0" /></g><g
         id="g6278"
         transform="matrix(1,0,0,-1,0,595.27557)"><path
           d="m 295.68,303.359 0,38.469 137.922,0"
           style="fill:none;stroke:#000000;stroke-width:0.80000001;stroke-linecap:butt;stroke-linejoin:miter;stroke-miterlimit:4;stroke-opacity:1;stroke-dasharray:none"
           id="path6280"
           inkscape:connector-curvature="0" /></g></g><g
       transform="translate(49.6,0)"
       id="g6301"><text
         id="text6303"
         transform="matrix(1,0,0,-1,48.649762,542.24579)"><tspan
           id="tspan6305"
           sodipodi:role="line"
           y="0"
           x="0 17.792 26.656 49.824001 67.648003 83.648003 99.648003 108.48 117.344 135.136 144 170.752 188.54401 204.54401 222.368 231.2 249.024 266.81601 273.952 281.056 298.88 316.672 334.496 343.328 352.19199 369.98401 387.80801 403.80801 412.64001 419.776 437.56799"
           style="font-size:32px;font-variant:normal;font-weight:normal;writing-mode:lr-tb;fill:#000000;fill-opacity:1;fill-rule:nonzero;stroke:none;font-family:Arial;-inkscape-font-specification:ArialMT">3 ways to make buildup function</tspan></text>
<text
         id="text6307"
         transform="matrix(1,0,0,-1,48.649762,462.24579)"><tspan
           id="tspan6309"
           sodipodi:role="line"
           y="0"
           x="0 21.344 37.344002 48.032001 65.823997 81.823997 97.823997 106.688 115.52 126.208 133.34399 151.136 158.272"
           style="font-size:32px;font-variant:normal;font-weight:normal;writing-mode:lr-tb;fill:#0000ff;fill-opacity:1;fill-rule:nonzero;stroke:none;font-family:Arial;-inkscape-font-specification:ArialMT">Across trials</tspan></text>
<text
         id="text6311"
         transform="matrix(1,0,0,-1,291.28945,462.24579)"><tspan
           id="tspan6313"
           sodipodi:role="line"
           y="0"
           x="0 21.344 44.512001 51.647999 60.48 76.480003 94.304001 103.136 112 122.688 129.79201 147.616 165.408 183.23199 193.92 211.71201 229.536 238.368 256.19199 272.25601 290.048 300.73599 318.56 336.35199"
           style="font-size:32px;font-variant:normal;font-weight:normal;writing-mode:lr-tb;fill:#ff00fe;fill-opacity:1;fill-rule:nonzero;stroke:none;font-family:Arial;-inkscape-font-specification:ArialMT">Switch triggered average</tspan></text>
<g
         transform="matrix(1,0,0,-1,0,595.27557)"
         id="g6315"><path
           inkscape:connector-curvature="0"
           id="path6317"
           style="fill:none;stroke:#0000fe;stroke-width:1.60000002;stroke-linecap:butt;stroke-linejoin:miter;stroke-miterlimit:4;stroke-opacity:1;stroke-dasharray:none"
           d="m 294.539,191.215 45.688,0 0,-35.559 19.128,0 0,35.559 51,0 0,-35.559 34,0 0,35.559 23.375,0 0,-35.559 37.188,0 0,35.559 33.953,0 -0.609,-35.559 27.476,0 0,35.559 43.641,0 0,-35.559 38.789,0 0,35.559 78.777,0" /></g></g></g></svg>