<?xml version="1.0" encoding="UTF-8" standalone="no"?>
<!-- Created with Inkscape (http://www.inkscape.org/) -->

<svg
   xmlns:dc="http://purl.org/dc/elements/1.1/"
   xmlns:cc="http://creativecommons.org/ns#"
   xmlns:rdf="http://www.w3.org/1999/02/22-rdf-syntax-ns#"
   xmlns:svg="http://www.w3.org/2000/svg"
   xmlns="http://www.w3.org/2000/svg"
   xmlns:sodipodi="http://sodipodi.sourceforge.net/DTD/sodipodi-0.dtd"
   xmlns:inkscape="http://www.inkscape.org/namespaces/inkscape"
   width="1052.3622"
   height="744.09448"
   id="svg2"
   version="1.1"
   inkscape:version="0.48.1 r9760"
   sodipodi:docname="BUFtrialSubjBH.svg">
  <defs
     id="defs4">
    <clipPath
       id="clipPath3244"
       clipPathUnits="userSpaceOnUse">
      <path
         id="path3246"
         d="m 582.5,3118.33 3472.5,0 0,-2739.998 -3472.5,0 0,2739.998 z"
         inkscape:connector-curvature="0" />
    </clipPath>
    <clipPath
       id="clipPath3020"
       clipPathUnits="userSpaceOnUse">
      <path
         id="path3022"
         d="m 0,3370 4480,0 0,-3360.83203 -4480,0 L 0,3370 z"
         inkscape:connector-curvature="0" />
    </clipPath>
  </defs>
  <sodipodi:namedview
     id="base"
     pagecolor="#ffffff"
     bordercolor="#666666"
     borderopacity="1.0"
     inkscape:pageopacity="0.0"
     inkscape:pageshadow="2"
     inkscape:zoom="0.7"
     inkscape:cx="522.14286"
     inkscape:cy="348.27407"
     inkscape:document-units="px"
     inkscape:current-layer="layer1"
     showgrid="false"
     inkscape:window-width="968"
     inkscape:window-height="714"
     inkscape:window-x="343"
     inkscape:window-y="11"
     inkscape:window-maximized="0" />
  <metadata
     id="metadata7">
    <rdf:RDF>
      <cc:Work
         rdf:about="">
        <dc:format>image/svg+xml</dc:format>
        <dc:type
           rdf:resource="http://purl.org/dc/dcmitype/StillImage" />
        <dc:title></dc:title>
      </cc:Work>
    </rdf:RDF>
  </metadata>
  <g
     inkscape:label="Layer 1"
     inkscape:groupmode="layer"
     id="layer1"
     transform="translate(0,-308.2677)">
    <g
       id="g3014"
       transform="matrix(0.1434949,0,0,-0.14285273,207.14285,933.00945)"
       style="stroke-width:20.95360485;stroke-miterlimit:10;stroke-dasharray:none">
      <g
         id="g3016"
         style="stroke-width:20.95360485;stroke-miterlimit:10;stroke-dasharray:none">
        <g
           id="g3018"
           clip-path="url(#clipPath3020)"
           style="stroke-width:20.95360485;stroke-miterlimit:10;stroke-dasharray:none">
          <path
             inkscape:connector-curvature="0"
             d="m 0,9.16797 4480,0 0,3360.83003 -4480,0 L 0,9.16797 z"
             style="fill:#ffffff;fill-opacity:1;fill-rule:nonzero;stroke:none;stroke-width:20.95360485;stroke-miterlimit:10;stroke-dasharray:none"
             id="path3024" />
          <path
             inkscape:connector-curvature="0"
             d="m 582.5,379.168 3471.67,0 0,2739.16 -3471.67,0 0,-2739.16 z"
             style="fill:#ffffff;fill-opacity:1;fill-rule:evenodd;stroke:none;stroke-width:20.95360485;stroke-miterlimit:10;stroke-dasharray:none"
             id="path3026" />
          <path
             inkscape:connector-curvature="0"
             d="m 582.5,379.168 0,2739.162 3471.67,0 0,-2739.162 -3471.67,0"
             style="fill:none;stroke:#ffffff;stroke-width:20.95360485;stroke-linecap:butt;stroke-linejoin:round;stroke-miterlimit:10;stroke-opacity:1;stroke-dasharray:none"
             id="path3028" />
          <path
             inkscape:connector-curvature="0"
             d="m 582.5,379.168 3471.67,0"
             style="fill:none;stroke:#000000;stroke-width:20.95360485;stroke-linecap:butt;stroke-linejoin:round;stroke-miterlimit:10;stroke-opacity:1;stroke-dasharray:none"
             id="path3030" />
          <path
             inkscape:connector-curvature="0"
             d="m 582.5,379.168 0,2739.162"
             style="fill:none;stroke:#000000;stroke-width:20.95360485;stroke-linecap:butt;stroke-linejoin:round;stroke-miterlimit:10;stroke-opacity:1;stroke-dasharray:none"
             id="path3034" />
          <path
             inkscape:connector-curvature="0"
             d="m 582.5,379.168 3471.67,0"
             style="fill:none;stroke:#000000;stroke-width:20.95360485;stroke-linecap:butt;stroke-linejoin:round;stroke-miterlimit:10;stroke-opacity:1;stroke-dasharray:none"
             id="path3038" />
          <path
             inkscape:connector-curvature="0"
             d="m 582.5,379.168 0,2739.162"
             style="fill:none;stroke:#000000;stroke-width:20.95360485;stroke-linecap:butt;stroke-linejoin:round;stroke-miterlimit:10;stroke-opacity:1;stroke-dasharray:none"
             id="path3040" />
          <path
             inkscape:connector-curvature="0"
             d="m 582.5,379.168 0,35"
             style="fill:none;stroke:#000000;stroke-width:20.95360485;stroke-linecap:butt;stroke-linejoin:round;stroke-miterlimit:10;stroke-opacity:1;stroke-dasharray:none"
             id="path3042" />
          <path
             inkscape:connector-curvature="0"
             d="m 582.5,3119.17 0,-35"
             style="fill:none;stroke:#000000;stroke-width:20.95360485;stroke-linecap:butt;stroke-linejoin:round;stroke-miterlimit:10;stroke-opacity:1;stroke-dasharray:none"
             id="path3044" />
          <g
             id="g3046"
             transform="scale(10,10)"
             style="stroke-width:2.09536048;stroke-miterlimit:10;stroke-dasharray:none">
            <text
               transform="matrix(1,0,0,-1,55.5,25.8332)"
               id="text3048"
               style="stroke-width:2.09536048;stroke-miterlimit:10;stroke-dasharray:none">
              <tspan
                 style="font-size:10px;font-variant:normal;font-weight:normal;writing-mode:lr-tb;fill:#000000;fill-opacity:1;fill-rule:nonzero;stroke:none;font-family:Helvetica;-inkscape-font-specification:Helvetica;stroke-width:2.09536048;stroke-miterlimit:10;stroke-dasharray:none"
                 x="0"
                 y="0"
                 id="tspan3050">0</tspan>
            </text>
          </g>
          <path
             inkscape:connector-curvature="0"
             d="m 929.168,379.168 0,35"
             style="fill:none;stroke:#000000;stroke-width:20.95360485;stroke-linecap:butt;stroke-linejoin:round;stroke-miterlimit:10;stroke-opacity:1;stroke-dasharray:none"
             id="path3052" />
          <g
             id="g3056"
             transform="scale(10,10)"
             style="stroke-width:2.09536048;stroke-miterlimit:10;stroke-dasharray:none">
            <text
               transform="matrix(1,0,0,-1,90.1668,25.8332)"
               id="text3058"
               style="stroke-width:2.09536048;stroke-miterlimit:10;stroke-dasharray:none">
              <tspan
                 style="font-size:10px;font-variant:normal;font-weight:normal;writing-mode:lr-tb;fill:#000000;fill-opacity:1;fill-rule:nonzero;stroke:none;font-family:Helvetica;-inkscape-font-specification:Helvetica;stroke-width:2.09536048;stroke-miterlimit:10;stroke-dasharray:none"
                 x="0"
                 y="0"
                 id="tspan3060" />
            </text>
          </g>
          <path
             inkscape:connector-curvature="0"
             d="m 1276.67,379.168 0,35"
             style="fill:none;stroke:#000000;stroke-width:20.95360485;stroke-linecap:butt;stroke-linejoin:round;stroke-miterlimit:10;stroke-opacity:1;stroke-dasharray:none"
             id="path3062" />
          <g
             id="g3066"
             transform="scale(10,10)"
             style="stroke-width:2.09536048;stroke-miterlimit:10;stroke-dasharray:none">
            <text
               transform="matrix(1,0,0,-1,124.917,25.8332)"
               id="text3068"
               style="stroke-width:2.09536048;stroke-miterlimit:10;stroke-dasharray:none">
              <tspan
                 style="font-size:10px;font-variant:normal;font-weight:normal;writing-mode:lr-tb;fill:#000000;fill-opacity:1;fill-rule:nonzero;stroke:none;font-family:Helvetica;-inkscape-font-specification:Helvetica;stroke-width:2.09536048;stroke-miterlimit:10;stroke-dasharray:none"
                 x="0"
                 y="0"
                 id="tspan3070">2</tspan>
            </text>
          </g>
          <path
             inkscape:connector-curvature="0"
             d="m 1623.33,379.168 0,35"
             style="fill:none;stroke:#000000;stroke-width:20.95360485;stroke-linecap:butt;stroke-linejoin:round;stroke-miterlimit:10;stroke-opacity:1;stroke-dasharray:none"
             id="path3072" />
          <g
             id="g3076"
             transform="scale(10,10)"
             style="stroke-width:2.09536048;stroke-miterlimit:10;stroke-dasharray:none">
            <text
               transform="matrix(1,0,0,-1,159.583,25.8332)"
               id="text3078"
               style="stroke-width:2.09536048;stroke-miterlimit:10;stroke-dasharray:none">
              <tspan
                 style="font-size:10px;font-variant:normal;font-weight:normal;writing-mode:lr-tb;fill:#000000;fill-opacity:1;fill-rule:nonzero;stroke:none;font-family:Helvetica;-inkscape-font-specification:Helvetica;stroke-width:2.09536048;stroke-miterlimit:10;stroke-dasharray:none"
                 x="0"
                 y="0"
                 id="tspan3080" />
            </text>
          </g>
          <path
             inkscape:connector-curvature="0"
             d="m 1970.83,379.168 0,35"
             style="fill:none;stroke:#000000;stroke-width:20.95360485;stroke-linecap:butt;stroke-linejoin:round;stroke-miterlimit:10;stroke-opacity:1;stroke-dasharray:none"
             id="path3082" />
          <g
             id="g3086"
             transform="scale(10,10)"
             style="stroke-width:2.09536048;stroke-miterlimit:10;stroke-dasharray:none">
            <text
               transform="matrix(1,0,0,-1,194.333,25.8332)"
               id="text3088"
               style="stroke-width:2.09536048;stroke-miterlimit:10;stroke-dasharray:none">
              <tspan
                 style="font-size:10px;font-variant:normal;font-weight:normal;writing-mode:lr-tb;fill:#000000;fill-opacity:1;fill-rule:nonzero;stroke:none;font-family:Helvetica;-inkscape-font-specification:Helvetica;stroke-width:2.09536048;stroke-miterlimit:10;stroke-dasharray:none"
                 x="0"
                 y="0"
                 id="tspan3090">4</tspan>
            </text>
          </g>
          <path
             inkscape:connector-curvature="0"
             d="m 2318.33,379.168 0,35"
             style="fill:none;stroke:#000000;stroke-width:20.95360485;stroke-linecap:butt;stroke-linejoin:round;stroke-miterlimit:10;stroke-opacity:1;stroke-dasharray:none"
             id="path3092" />
          <g
             id="g3096"
             transform="scale(10,10)"
             style="stroke-width:2.09536048;stroke-miterlimit:10;stroke-dasharray:none">
            <text
               transform="matrix(1,0,0,-1,229.083,25.8332)"
               id="text3098"
               style="stroke-width:2.09536048;stroke-miterlimit:10;stroke-dasharray:none">
              <tspan
                 style="font-size:10px;font-variant:normal;font-weight:normal;writing-mode:lr-tb;fill:#000000;fill-opacity:1;fill-rule:nonzero;stroke:none;font-family:Helvetica;-inkscape-font-specification:Helvetica;stroke-width:2.09536048;stroke-miterlimit:10;stroke-dasharray:none"
                 x="0"
                 y="0"
                 id="tspan3100" />
            </text>
          </g>
          <path
             inkscape:connector-curvature="0"
             d="m 2665,379.168 0,35"
             style="fill:none;stroke:#000000;stroke-width:20.95360485;stroke-linecap:butt;stroke-linejoin:round;stroke-miterlimit:10;stroke-opacity:1;stroke-dasharray:none"
             id="path3102" />
          <g
             id="g3106"
             transform="scale(10,10)"
             style="stroke-width:2.09536048;stroke-miterlimit:10;stroke-dasharray:none">
            <text
               transform="matrix(1,0,0,-1,263.75,25.8332)"
               id="text3108"
               style="stroke-width:2.09536048;stroke-miterlimit:10;stroke-dasharray:none">
              <tspan
                 style="font-size:10px;font-variant:normal;font-weight:normal;writing-mode:lr-tb;fill:#000000;fill-opacity:1;fill-rule:nonzero;stroke:none;font-family:Helvetica;-inkscape-font-specification:Helvetica;stroke-width:2.09536048;stroke-miterlimit:10;stroke-dasharray:none"
                 x="0"
                 y="0"
                 id="tspan3110">6</tspan>
            </text>
          </g>
          <path
             inkscape:connector-curvature="0"
             d="m 3012.5,379.168 0,35"
             style="fill:none;stroke:#000000;stroke-width:20.95360485;stroke-linecap:butt;stroke-linejoin:round;stroke-miterlimit:10;stroke-opacity:1;stroke-dasharray:none"
             id="path3112" />
          <g
             id="g3116"
             transform="scale(10,10)"
             style="stroke-width:2.09536048;stroke-miterlimit:10;stroke-dasharray:none">
            <text
               transform="matrix(1,0,0,-1,298.5,25.8332)"
               id="text3118"
               style="stroke-width:2.09536048;stroke-miterlimit:10;stroke-dasharray:none">
              <tspan
                 style="font-size:10px;font-variant:normal;font-weight:normal;writing-mode:lr-tb;fill:#000000;fill-opacity:1;fill-rule:nonzero;stroke:none;font-family:Helvetica;-inkscape-font-specification:Helvetica;stroke-width:2.09536048;stroke-miterlimit:10;stroke-dasharray:none"
                 x="0"
                 y="0"
                 id="tspan3120" />
            </text>
          </g>
          <path
             inkscape:connector-curvature="0"
             d="m 3359.17,379.168 0,35"
             style="fill:none;stroke:#000000;stroke-width:20.95360485;stroke-linecap:butt;stroke-linejoin:round;stroke-miterlimit:10;stroke-opacity:1;stroke-dasharray:none"
             id="path3122" />
          <g
             id="g3126"
             transform="scale(10,10)"
             style="stroke-width:2.09536048;stroke-miterlimit:10;stroke-dasharray:none">
            <text
               transform="matrix(1,0,0,-1,333.167,25.8332)"
               id="text3128"
               style="stroke-width:2.09536048;stroke-miterlimit:10;stroke-dasharray:none">
              <tspan
                 style="font-size:10px;font-variant:normal;font-weight:normal;writing-mode:lr-tb;fill:#000000;fill-opacity:1;fill-rule:nonzero;stroke:none;font-family:Helvetica;-inkscape-font-specification:Helvetica;stroke-width:2.09536048;stroke-miterlimit:10;stroke-dasharray:none"
                 x="0"
                 y="0"
                 id="tspan3130">8</tspan>
            </text>
          </g>
          <path
             inkscape:connector-curvature="0"
             d="m 3706.67,379.168 0,35"
             style="fill:none;stroke:#000000;stroke-width:20.95360485;stroke-linecap:butt;stroke-linejoin:round;stroke-miterlimit:10;stroke-opacity:1;stroke-dasharray:none"
             id="path3132" />
          <g
             id="g3136"
             transform="scale(10,10)"
             style="stroke-width:2.09536048;stroke-miterlimit:10;stroke-dasharray:none">
            <text
               transform="matrix(1,0,0,-1,367.917,25.8332)"
               id="text3138"
               style="stroke-width:2.09536048;stroke-miterlimit:10;stroke-dasharray:none">
              <tspan
                 style="font-size:10px;font-variant:normal;font-weight:normal;writing-mode:lr-tb;fill:#000000;fill-opacity:1;fill-rule:nonzero;stroke:none;font-family:Helvetica;-inkscape-font-specification:Helvetica;stroke-width:2.09536048;stroke-miterlimit:10;stroke-dasharray:none"
                 x="0"
                 y="0"
                 id="tspan3140" />
            </text>
          </g>
          <path
             inkscape:connector-curvature="0"
             d="m 4054.17,379.168 0,35"
             style="fill:none;stroke:#000000;stroke-width:20.95360485;stroke-linecap:butt;stroke-linejoin:round;stroke-miterlimit:10;stroke-opacity:1;stroke-dasharray:none"
             id="path3142" />
          <g
             id="g3146"
             transform="scale(10,10)"
             style="stroke-width:2.09536048;stroke-miterlimit:10;stroke-dasharray:none">
            <text
               transform="matrix(1,0,0,-1,399.917,25.8332)"
               id="text3148"
               style="stroke-width:2.09536048;stroke-miterlimit:10;stroke-dasharray:none">
              <tspan
                 style="font-size:10px;font-variant:normal;font-weight:normal;writing-mode:lr-tb;fill:#000000;fill-opacity:1;fill-rule:nonzero;stroke:none;font-family:Helvetica;-inkscape-font-specification:Helvetica;stroke-width:2.09536048;stroke-miterlimit:10;stroke-dasharray:none"
                 x="0 5.5599999"
                 y="0"
                 sodipodi:role="line"
                 id="tspan3150">10</tspan>
            </text>
          </g>
          <path
             inkscape:connector-curvature="0"
             d="m 582.5,379.168 34.168,0"
             style="fill:none;stroke:#000000;stroke-width:20.95360485;stroke-linecap:butt;stroke-linejoin:round;stroke-miterlimit:10;stroke-opacity:1;stroke-dasharray:none"
             id="path3152" />
          <path
             inkscape:connector-curvature="0"
             d="m 4054.17,379.168 -35,0"
             style="fill:none;stroke:#000000;stroke-width:20.95360485;stroke-linecap:butt;stroke-linejoin:round;stroke-miterlimit:10;stroke-opacity:1;stroke-dasharray:none"
             id="path3154" />
          <g
             id="g3156"
             transform="scale(10,10)"
             style="stroke-width:2.09536048;stroke-miterlimit:10;stroke-dasharray:none">
            <text
               transform="matrix(1,0,0,-1,49.8332,34.25)"
               id="text3158"
               style="stroke-width:2.09536048;stroke-miterlimit:10;stroke-dasharray:none">
              <tspan
                 style="font-size:10px;font-variant:normal;font-weight:normal;writing-mode:lr-tb;fill:#000000;fill-opacity:1;fill-rule:nonzero;stroke:none;font-family:Helvetica;-inkscape-font-specification:Helvetica;stroke-width:2.09536048;stroke-miterlimit:10;stroke-dasharray:none"
                 x="0"
                 y="0"
                 id="tspan3160">0</tspan>
            </text>
          </g>
          <path
             inkscape:connector-curvature="0"
             d="m 582.5,770.832 34.168,0"
             style="fill:none;stroke:#000000;stroke-width:20.95360485;stroke-linecap:butt;stroke-linejoin:round;stroke-miterlimit:10;stroke-opacity:1;stroke-dasharray:none"
             id="path3162" />
          <path
             inkscape:connector-curvature="0"
             d="m 4054.17,770.832 -35,0"
             style="fill:none;stroke:#000000;stroke-width:20.95360485;stroke-linecap:butt;stroke-linejoin:round;stroke-miterlimit:10;stroke-opacity:1;stroke-dasharray:none"
             id="path3164"
             sodipodi:nodetypes="cc" />
          <g
             id="g3166"
             transform="scale(10,10)"
             style="stroke-width:2.09536048;stroke-miterlimit:10;stroke-dasharray:none">
            <text
               transform="matrix(1,0,0,-1,41.5,73.4168)"
               id="text3168"
               style="stroke-width:2.09536048;stroke-miterlimit:10;stroke-dasharray:none">
              <tspan
                 style="font-size:10px;font-variant:normal;font-weight:normal;writing-mode:lr-tb;fill:#000000;fill-opacity:1;fill-rule:nonzero;stroke:none;font-family:Helvetica;-inkscape-font-specification:Helvetica;stroke-width:2.09536048;stroke-miterlimit:10;stroke-dasharray:none"
                 x="0 5.5599999 8.3400002"
                 y="0"
                 sodipodi:role="line"
                 id="tspan3170">0.1</tspan>
            </text>
          </g>
          <path
             inkscape:connector-curvature="0"
             d="m 582.5,1162.5 34.168,0"
             style="fill:none;stroke:#000000;stroke-width:20.95360485;stroke-linecap:butt;stroke-linejoin:round;stroke-miterlimit:10;stroke-opacity:1;stroke-dasharray:none"
             id="path3172" />
          <g
             id="g3176"
             transform="scale(10,10)"
             style="stroke-width:2.09536048;stroke-miterlimit:10;stroke-dasharray:none">
            <text
               transform="matrix(1,0,0,-1,41.5,112.583)"
               id="text3178"
               style="stroke-width:2.09536048;stroke-miterlimit:10;stroke-dasharray:none">
              <tspan
                 style="font-size:10px;font-variant:normal;font-weight:normal;writing-mode:lr-tb;fill:#000000;fill-opacity:1;fill-rule:nonzero;stroke:none;font-family:Helvetica;-inkscape-font-specification:Helvetica;stroke-width:2.09536048;stroke-miterlimit:10;stroke-dasharray:none"
                 x="0 5.5599999 8.3400002"
                 y="0"
                 sodipodi:role="line"
                 id="tspan3180">0.2</tspan>
            </text>
          </g>
          <path
             inkscape:connector-curvature="0"
             d="m 582.5,1553.33 34.168,0"
             style="fill:none;stroke:#000000;stroke-width:20.95360485;stroke-linecap:butt;stroke-linejoin:round;stroke-miterlimit:10;stroke-opacity:1;stroke-dasharray:none"
             id="path3182" />
          <g
             id="g3186"
             transform="scale(10,10)"
             style="stroke-width:2.09536048;stroke-miterlimit:10;stroke-dasharray:none">
            <text
               transform="matrix(1,0,0,-1,41.5,151.667)"
               id="text3188"
               style="stroke-width:2.09536048;stroke-miterlimit:10;stroke-dasharray:none">
              <tspan
                 style="font-size:10px;font-variant:normal;font-weight:normal;writing-mode:lr-tb;fill:#000000;fill-opacity:1;fill-rule:nonzero;stroke:none;font-family:Helvetica;-inkscape-font-specification:Helvetica;stroke-width:2.09536048;stroke-miterlimit:10;stroke-dasharray:none"
                 x="0 5.5599999 8.3400002"
                 y="0"
                 sodipodi:role="line"
                 id="tspan3190">0.3</tspan>
            </text>
          </g>
          <path
             inkscape:connector-curvature="0"
             d="m 582.5,1945 34.168,0"
             style="fill:none;stroke:#000000;stroke-width:20.95360485;stroke-linecap:butt;stroke-linejoin:round;stroke-miterlimit:10;stroke-opacity:1;stroke-dasharray:none"
             id="path3192" />
          <g
             id="g3196"
             transform="scale(10,10)"
             style="stroke-width:2.09536048;stroke-miterlimit:10;stroke-dasharray:none">
            <text
               transform="matrix(1,0,0,-1,41.5,190.833)"
               id="text3198"
               style="stroke-width:2.09536048;stroke-miterlimit:10;stroke-dasharray:none">
              <tspan
                 style="font-size:10px;font-variant:normal;font-weight:normal;writing-mode:lr-tb;fill:#000000;fill-opacity:1;fill-rule:nonzero;stroke:none;font-family:Helvetica;-inkscape-font-specification:Helvetica;stroke-width:2.09536048;stroke-miterlimit:10;stroke-dasharray:none"
                 x="0 5.5599999 8.3400002"
                 y="0"
                 sodipodi:role="line"
                 id="tspan3200">0.4</tspan>
            </text>
          </g>
          <path
             inkscape:connector-curvature="0"
             d="m 582.5,2335.83 34.168,0"
             style="fill:none;stroke:#000000;stroke-width:20.95360485;stroke-linecap:butt;stroke-linejoin:round;stroke-miterlimit:10;stroke-opacity:1;stroke-dasharray:none"
             id="path3202" />
          <g
             id="g3206"
             transform="scale(10,10)"
             style="stroke-width:2.09536048;stroke-miterlimit:10;stroke-dasharray:none">
            <text
               transform="matrix(1,0,0,-1,41.5,229.917)"
               id="text3208"
               style="stroke-width:2.09536048;stroke-miterlimit:10;stroke-dasharray:none">
              <tspan
                 style="font-size:10px;font-variant:normal;font-weight:normal;writing-mode:lr-tb;fill:#000000;fill-opacity:1;fill-rule:nonzero;stroke:none;font-family:Helvetica;-inkscape-font-specification:Helvetica;stroke-width:2.09536048;stroke-miterlimit:10;stroke-dasharray:none"
                 x="0 5.5599999 8.3400002"
                 y="0"
                 sodipodi:role="line"
                 id="tspan3210">0.5</tspan>
            </text>
          </g>
          <path
             inkscape:connector-curvature="0"
             d="m 582.5,2727.5 34.168,0"
             style="fill:none;stroke:#000000;stroke-width:20.95360485;stroke-linecap:butt;stroke-linejoin:round;stroke-miterlimit:10;stroke-opacity:1;stroke-dasharray:none"
             id="path3212" />
          <g
             id="g3216"
             transform="scale(10,10)"
             style="stroke-width:2.09536048;stroke-miterlimit:10;stroke-dasharray:none">
            <text
               transform="matrix(1,0,0,-1,41.5,269.083)"
               id="text3218"
               style="stroke-width:2.09536048;stroke-miterlimit:10;stroke-dasharray:none">
              <tspan
                 style="font-size:10px;font-variant:normal;font-weight:normal;writing-mode:lr-tb;fill:#000000;fill-opacity:1;fill-rule:nonzero;stroke:none;font-family:Helvetica;-inkscape-font-specification:Helvetica;stroke-width:2.09536048;stroke-miterlimit:10;stroke-dasharray:none"
                 x="0 5.5599999 8.3400002"
                 y="0"
                 sodipodi:role="line"
                 id="tspan3220">0.6</tspan>
            </text>
          </g>
          <g
             id="g3226"
             transform="scale(10,10)"
             style="stroke-width:2.09536048;stroke-miterlimit:10;stroke-dasharray:none">
            <text
               transform="matrix(1,0,0,-1,41.5,308.25)"
               id="text3228"
               style="stroke-width:2.09536048;stroke-miterlimit:10;stroke-dasharray:none">
              <tspan
                 style="font-size:10px;font-variant:normal;font-weight:normal;writing-mode:lr-tb;fill:#000000;fill-opacity:1;fill-rule:nonzero;stroke:none;font-family:Helvetica;-inkscape-font-specification:Helvetica;stroke-width:2.09536048;stroke-miterlimit:10;stroke-dasharray:none"
                 x="0 5.5599999 8.3400002"
                 y="0"
                 sodipodi:role="line"
                 id="tspan3230">0.7</tspan>
            </text>
          </g>
          <path
             inkscape:connector-curvature="0"
             d="m 582.5,379.168 3471.67,0"
             style="fill:none;stroke:#000000;stroke-width:20.95360485;stroke-linecap:butt;stroke-linejoin:round;stroke-miterlimit:10;stroke-opacity:1;stroke-dasharray:none"
             id="path3232" />
          <path
             inkscape:connector-curvature="0"
             d="m 582.5,379.168 0,2739.162"
             style="fill:none;stroke:#000000;stroke-width:20.95360485;stroke-linecap:butt;stroke-linejoin:round;stroke-miterlimit:10;stroke-opacity:1;stroke-dasharray:none"
             id="path3236" />
        </g>
      </g>
      <g
         id="g3240"
         style="stroke-width:20.95360485;stroke-miterlimit:10;stroke-dasharray:none">
        <g
           id="g3242"
           clip-path="url(#clipPath3244)"
           style="stroke-width:20.95360485;stroke-miterlimit:10;stroke-dasharray:none">
          <path
             inkscape:connector-curvature="0"
             d="m 3015.83,2218.33 14.17,0 3.33,39.17 3.34,0 3.33,39.17 27.5,0 4.17,78.33 6.66,0 3.34,39.17 20.83,0 3.33,39.16 24.17,0 4.17,-39.16 3.33,0 3.33,39.16 17.5,0 3.34,39.17 59.16,0 3.34,-39.17 3.33,-39.16 3.33,39.16 17.5,0 3.34,-39.16 14.16,0 3.34,39.16 3.33,-39.16 3.33,-39.17 14.17,0 3.33,-39.17 6.67,0 4.17,-39.16 27.5,0 3.33,-39.17 20.83,0 3.34,39.17 3.33,0 4.17,39.16 10,0 3.33,-39.16 7.5,0 3.33,-39.17 17.5,0 3.34,-39.17 51.66,0 3.34,39.17 7.5,0 3.33,-39.17 6.67,0 3.33,-38.33 10.83,0 3.34,38.33 3.33,0 3.33,-38.33 7.5,0 3.34,-39.17 6.66,0 3.34,39.17 17.5,0 3.33,38.33 7.5,0 3.33,39.17 10,0 4.17,39.17 3.33,0 3.34,-39.17 3.33,39.17 38.33,0 3.34,39.16 3.33,39.17 7.5,0 3.33,39.17 3.34,-39.17 27.5,0 3.33,-39.17 4.17,39.17 6.66,0 3.34,39.17 3.33,0 3.33,-39.17 4.17,0 3.33,-39.17 3.34,0 3.33,-39.16 17.5,0 3.33,-39.17 3.34,0 3.33,-39.17 4.17,39.17 13.33,0 3.33,39.17 10.84,0 3.33,-78.34 14.17,0 3.33,39.17 10,0 4.17,39.17 13.33,0 3.33,39.16 4.17,39.17 3.33,0 3.34,39.17 3.33,39.16 3.33,0 3.34,-39.16 4.16,-78.34 20.84,0 3.33,78.34 6.67,0 3.33,39.16 10.83,0 3.34,78.34 3.33,0 3.33,39.16 3.34,0 4.16,39.17 3.34,0 3.33,-39.17 20.83,0 3.34,39.17 24.16,0 3.34,-39.17 55.83,0 3.33,-39.16 7.5,0 3.34,-39.17 10,0 3.33,39.17 4.17,0"
             style="fill:none;stroke:#0000ff;stroke-width:20.95360485;stroke-linecap:butt;stroke-linejoin:round;stroke-miterlimit:10;stroke-opacity:1;stroke-dasharray:none"
             id="path3248" />
          <path
             inkscape:connector-curvature="0"
             d="m 1977.5,2649.17 10.83,0 3.34,39.16 24.16,0 3.34,-39.16 7.5,0 3.33,-39.17 6.67,0 3.33,-39.17 17.5,0 3.33,39.17 14.17,0 3.33,-39.17 6.67,0 4.17,-39.16 3.33,0 3.33,39.16 10,0 4.17,39.17 3.33,39.17 13.34,0 4.16,39.16 6.67,0 3.33,-39.16 14.17,0 3.33,39.16 6.67,0 3.33,-39.16 4.17,39.16 10,0 3.33,39.17 10.84,0 3.33,39.17 3.33,39.16 3.34,39.17 10.83,0 3.33,-39.17 3.34,-39.16 14.16,0 3.34,-39.17 24.16,0 3.34,39.17 20.83,0 3.33,39.16 4.17,0 3.33,39.17 10,0 3.34,39.17 4.16,-39.17 24.17,0 3.33,39.17 30.84,0 3.33,-39.17 4.17,39.17 6.66,0 3.34,-39.17 3.33,39.17 3.33,-39.17 10.84,0 3.33,39.17 17.5,0 3.33,39.16 14.17,0 3.33,-39.16 6.67,0 3.33,-39.17 4.17,0 3.33,-39.17 10,0 3.34,39.17 7.5,0 3.33,-39.17 14.17,0 3.33,39.17 20.83,0 3.34,39.17 3.33,0 3.33,39.16 24.17,0 4.17,-39.16 3.33,-39.17 10,0 3.33,39.17 25,0 3.34,-39.17 30.83,0 3.33,39.17 35,0 3.34,-39.17 3.33,-39.17 4.17,0 3.33,-39.16 3.33,0 3.34,39.16 3.33,0 3.33,-39.16 10.84,0 3.33,-39.17 10.83,0 3.34,-39.17 3.33,0 3.33,-39.16 3.34,-78.34 14.16,0 3.34,39.17 6.66,0 4.17,-39.17 13.33,0 3.34,39.17 4.16,-39.17 6.67,0 3.33,-78.33 3.34,0 3.33,39.17 14.17,0 3.33,-39.17 3.33,0 4.17,-39.17 3.33,0 3.34,78.34 24.16,0 3.34,-39.17 3.33,39.17 14.17,0 3.33,-39.17 3.33,-39.17 4.17,-39.16 13.33,0 3.34,39.16 20.83,0 4.17,-39.16 10,0 3.33,-39.17 14.17,0 3.33,-39.17 3.33,0 3.34,-39.16 4.16,0 3.34,-39.17 6.66,0 3.34,-39.17 3.33,39.17 4.17,0 3.33,-39.17 3.33,0"
             style="fill:none;stroke:#0000ff;stroke-width:20.95360485;stroke-linecap:butt;stroke-linejoin:round;stroke-miterlimit:10;stroke-opacity:1;stroke-dasharray:none"
             id="path3250" />
          <path
             inkscape:connector-curvature="0"
             d="m 940,1318.33 16.668,0 4.164,39.17 3.336,39.17 20.832,0 3.332,39.16 3.336,0 3.332,78.34 10.83,0 3.34,39.16 10,0 4.16,-39.16 3.34,39.16 27.5,0 3.33,78.34 17.5,0 3.33,39.16 3.34,0 4.16,78.34 16.67,0 4.17,78.33 3.33,0 3.33,39.17 3.34,-39.17 14.16,0 3.34,39.17 3.33,0 3.33,78.33 3.34,78.33 17.5,0 3.33,39.17 7.5,0 3.33,39.17 3.34,0 3.33,39.16 3.33,77.5 17.5,0 3.34,39.17 4.16,39.17 27.5,0 3.34,39.16 3.33,39.17 10.83,0 3.34,-39.17 17.5,0 3.33,39.17 10,0 4.17,-39.17 3.33,0 3.33,78.34 6.67,0 3.33,39.16 20.84,0 4.16,39.17 3.34,0 3.33,39.17 10,0 4.17,39.16 6.66,0 3.34,-39.16 27.5,0 4.16,-39.17 16.67,0 4.17,39.17 3.33,0 3.33,78.33 3.34,-39.17 3.33,39.17 17.5,0 3.33,-39.17 3.34,-39.16 28.33,0 3.33,39.16 3.34,-39.16 3.33,39.16 3.33,-39.16 3.34,39.16 10.83,0 3.33,39.17 6.67,0 4.17,39.17 6.66,0 3.34,-39.17 6.66,0 4.17,-39.17 3.33,0 3.34,39.17 3.33,39.17 3.33,39.16 20.84,0 3.33,39.17 4.17,39.17 10,0 3.33,-39.17 3.33,0 4.17,39.17 10,0 3.33,39.16 7.5,0 3.34,-39.16 3.33,39.16 17.5,0 3.33,39.17 20.84,0 3.33,39.17 10.83,0 3.34,39.16 13.33,0 4.17,39.17 13.33,0 3.33,-39.17 10.84,0 3.33,78.34 6.67,0 4.16,-39.17 37.5,0 4.17,39.17 3.33,39.16 3.34,-78.33 6.66,0 3.34,-39.17 7.5,0 3.33,-39.16 17.5,0 3.33,39.16 3.34,0 3.33,-39.16 3.33,-39.17 38.34,0 3.33,-78.33 4.17,-39.17 3.33,0 3.33,39.17 3.34,-39.17 27.5,0 4.16,39.17 13.34,0 3.33,-39.17 4.17,0 3.33,-78.33 10,0"
             style="fill:none;stroke:#0000ff;stroke-width:20.95360485;stroke-linecap:butt;stroke-linejoin:round;stroke-miterlimit:10;stroke-opacity:1;stroke-dasharray:none"
             id="path3252" />
          <path
             inkscape:connector-curvature="0"
             d="m 585.832,379.168 65.836,0 3.332,39.164 48.332,0 3.336,39.168 7.5,0 3.332,39.168 3.332,0 3.336,78.332 3.332,0 4.168,39.168 30.832,0 3.332,78.332 10.836,0 3.332,39.168 20.832,0 3.336,39.164 3.332,0 3.332,39.168 4.168,39.168 3.332,0 3.336,39.164 3.332,39.168 3.332,0 3.336,39.168 7.5,0 3.332,39.162 3.332,0 3.336,39.17 3.332,0 4.168,78.33 16.664,0 4.168,39.17 6.668,0 3.332,39.17 3.332,-39.17 7.5,0 3.336,39.17 17.5,0 3.332,116.66 17.5,0"
             style="fill:none;stroke:#0000ff;stroke-width:20.95360485;stroke-linecap:butt;stroke-linejoin:round;stroke-miterlimit:10;stroke-opacity:1;stroke-dasharray:none"
             id="path3254" />
          <path
             inkscape:connector-curvature="0"
             d="m 2033.33,2801.67 40.84,0 6.66,-0.84 20,0 6.67,-0.83 14.17,0 6.66,-0.83 6.67,0 6.67,-0.84 13.33,0 6.67,-0.83 6.66,0 7.5,-0.83 6.67,0 6.67,-0.84 6.66,0 6.67,-0.83 6.67,0 6.66,-0.83 7.5,-0.84 6.67,0 6.67,-0.83 6.66,0 6.67,-0.83 6.67,-0.84 6.66,0 7.5,-0.83 6.67,0 6.67,-0.83 6.66,-0.84 6.67,0 6.67,-0.83 6.66,-0.83 7.5,0 6.67,-0.84 6.67,-0.83 6.66,0 6.67,-0.83 6.67,-0.84 6.66,0 6.67,-0.83 7.5,-0.83 6.67,0 6.66,-0.84 6.67,-0.83 6.67,0 6.66,-0.83 6.67,-0.84 7.5,0 6.67,-0.83 6.66,-0.83 6.67,0 6.67,-0.84 6.66,-0.83 6.67,0 7.5,-0.83 6.67,-0.84 6.66,0 6.67,-0.83 6.67,-0.83 6.66,0 6.67,-0.84 6.67,-0.83 7.5,0 6.66,-0.83 6.67,0 6.67,-0.84 6.66,-0.83 6.67,0 6.67,-0.83 7.5,0 6.66,-0.84 6.67,-0.83 6.67,0 6.66,-0.83 6.67,0 6.67,-0.84 7.5,-0.83 6.66,0 6.67,-0.83 6.67,0 6.66,-0.84 6.67,0 6.67,-0.83 6.66,0 7.5,-0.83 6.67,-0.84 6.67,0 6.66,-0.83 6.67,0 6.67,-0.83 6.66,0 7.5,-0.84 6.67,0 6.67,-0.83 13.33,0 6.67,-0.83 6.66,0 7.5,-0.84 6.67,0 6.67,-0.83 6.66,0 6.67,-0.83 13.33,0 6.67,-0.84 7.5,0 6.67,-0.83 13.33,0 6.67,-0.83 6.66,0 6.67,-0.84 14.17,0 6.66,-0.83 13.34,0 6.66,-0.83 14.17,0 6.67,-0.84 13.33,0 6.67,-0.83 20,0 7.5,-0.83 13.33,0 6.67,-0.84 20,0 7.5,-0.83 20,0 6.66,-0.83 20.84,0 6.66,-0.84 26.67,0 6.67,-0.83 34.16,0 6.67,-0.83 34.17,0 6.66,-0.84 40.84,0 6.66,-0.83 47.5,0 6.67,-0.83 67.5,0 7.5,-0.84 94.17,0 7.5,-0.83 590.83,0"
             style="fill:none;stroke:#ff0000;stroke-width:20.95360485;stroke-linecap:butt;stroke-linejoin:round;stroke-miterlimit:10;stroke-opacity:1;stroke-dasharray:none"
             id="path3256" />
          <path
             inkscape:connector-curvature="0"
             d="m 582.5,385.832 6.668,7.5 6.664,9.168 6.668,10.832 6.668,12.5 6.664,13.336 6.668,15 6.668,15.832 7.5,16.668 6.664,16.664 6.668,18.336 6.668,19.164 6.664,19.168 6.668,20 6.668,20.832 7.5,20.836 6.664,21.664 6.668,21.668 6.668,21.668 6.664,22.5 6.668,22.5 6.668,23.332 7.5,23.332 6.664,23.336 6.668,24.164 6.668,23.336 6.664,24.164 6.668,24.168 6.668,24.168 6.664,24.164 7.5,24.168 6.668,24.168 6.668,24.162 6.664,25 6.668,24.17 6.668,24.17 6.664,24.16 7.5,25 6.668,24.17 6.668,24.17 6.664,24.16 6.668,24.17 6.668,23.33 6.664,24.17 7.5,23.33 6.668,24.17 6.668,23.33 6.664,23.34 6.668,23.33 6.668,22.5 6.664,23.33 6.668,22.5 7.5,22.5 6.668,22.5 6.664,22.5 6.668,21.67 6.668,21.67 6.664,21.66 6.668,21.67 7.5,21.67 6.668,20.83 6.664,20.83 6.668,20.84 6.67,20 6.66,20 6.67,20 7.5,20 6.67,20 6.66,19.16 6.67,19.17 6.67,18.33 6.66,19.17 6.67,18.33 6.67,18.34 7.5,17.5 6.66,18.33 6.67,17.5 6.67,17.5 6.66,16.67 6.67,16.66 6.67,16.67 7.5,16.67 6.66,15.83 6.67,15.83 6.67,15.84 6.66,15.83 6.67,15 6.67,15 7.5,15 6.66,14.17 6.67,14.16 6.67,14.17 6.66,14.17 6.67,13.33 6.67,14.17 6.66,12.5 7.5,13.33 6.67,12.5 6.67,12.5 6.66,12.5 6.67,12.5 6.67,11.67 6.66,11.66 7.5,11.67 6.67,11.67 6.67,10.83 6.66,10.83 6.67,10.84 6.67,10.83 6.66,10 7.5,10 6.67,10 6.67,10 6.66,9.17 6.67,9.16 6.67,9.17 6.66,9.17 6.67,9.16 7.5,8.34 6.67,8.33 6.66,8.33 6.67,8.34 6.67,8.33 6.66,7.5 6.67,7.5 7.5,7.5 6.67,7.5 6.66,6.67 6.67,7.5 6.67,6.66 6.66,6.67 6.67,6.67 7.5,5.83 6.67,6.67 6.66,5.83 6.67,5.83 6.67,5.84 6.66,5.83 6.67,5 7.5,5.83 6.67,5 6.66,5 6.67,5 6.67,5 6.66,5 6.67,4.17 6.67,4.17 7.5,5 6.66,4.16 6.67,4.17 6.67,3.33 6.66,4.17 6.67,4.17 6.67,3.33 7.5,3.33 6.66,4.17 6.67,3.33 6.67,2.5 6.66,3.34 6.67,3.33 6.67,3.33 7.5,2.5 6.66,2.5 6.67,3.34 6.67,2.5 6.66,2.5 6.67,2.5 6.67,1.66 6.66,2.5 7.5,2.5 6.67,1.67 6.67,2.5 6.66,1.67 6.67,1.66 6.67,2.5 6.66,1.67 7.5,1.67 6.67,1.66 6.67,1.67 6.66,0.83 6.67,1.67 6.67,1.67 6.66,0.83 7.5,1.67 6.67,0.83 6.67,0.83 6.66,1.67 6.67,0.83 6.67,0.84 6.66,0.83 6.67,0.83 7.5,0.84 6.67,0.83 6.66,0.83 6.67,0.84 6.67,0 6.66,0.83 6.67,0.83 7.5,0 6.67,0.84 6.66,0 6.67,0.83 6.67,0 6.66,0.83 14.17,0 6.67,0.84 54.16,0"
             style="fill:none;stroke:#ff0000;stroke-width:20.95360485;stroke-linecap:butt;stroke-linejoin:round;stroke-miterlimit:10;stroke-opacity:1;stroke-dasharray:none"
             id="path3258" />
        </g>
      </g>
    </g>
  </g>
</svg>
