<?xml version="1.0" encoding="UTF-8" standalone="no"?>
<!-- Created with Inkscape (http://www.inkscape.org/) -->

<svg
   xmlns:dc="http://purl.org/dc/elements/1.1/"
   xmlns:cc="http://creativecommons.org/ns#"
   xmlns:rdf="http://www.w3.org/1999/02/22-rdf-syntax-ns#"
   xmlns:svg="http://www.w3.org/2000/svg"
   xmlns="http://www.w3.org/2000/svg"
   xmlns:sodipodi="http://sodipodi.sourceforge.net/DTD/sodipodi-0.dtd"
   xmlns:inkscape="http://www.inkscape.org/namespaces/inkscape"
   id="svg5481"
   version="1.1"
   inkscape:version="0.48.1 r9760"
   width="1052.3622"
   height="744.09447"
   xml:space="preserve"
   sodipodi:docname="trial_average1.pdf"><metadata
     id="metadata5487"><rdf:RDF><cc:Work
         rdf:about=""><dc:format>image/svg+xml</dc:format><dc:type
           rdf:resource="http://purl.org/dc/dcmitype/StillImage" /><dc:title></dc:title></cc:Work></rdf:RDF></metadata><defs
     id="defs5485"><clipPath
       clipPathUnits="userSpaceOnUse"
       id="clipPath5571"><path
         d="m 0,0 841.88977,0 0,595.27557 L 0,595.27557 0,0 z"
         id="path5573" /></clipPath><mask
       maskUnits="userSpaceOnUse"
       x="0"
       y="0"
       width="1"
       height="1"
       id="mask5575"><g
         id="g5577"><g
           clip-path="url(#clipPath5571)"
           id="g5579"><path
             d="m 0,0 841.88977,0 0,595.27557 L 0,595.27557 0,0 z"
             style="fill:#000000;fill-opacity:0.943688;fill-rule:nonzero;stroke:none"
             id="path5581" /></g></g></mask><clipPath
       clipPathUnits="userSpaceOnUse"
       id="clipPath5587"><path
         d="m 0,0 841.88977,0 0,595.27557 L 0,595.27557 0,0 z"
         id="path5589" /></clipPath><clipPath
       clipPathUnits="userSpaceOnUse"
       id="clipPath5591"><path
         d="M 0,0 842,0 842,596 0,596 0,0 z"
         id="path5593" /></clipPath><pattern
       patternTransform="translate(0,-0.724426)"
       patternUnits="userSpaceOnUse"
       x="0"
       y="0"
       width="842"
       height="596"
       id="pattern5595"><g
         id="g5597" /><g
         id="g5599"><g
           clip-path="url(#clipPath5591)"
           id="g5601"><g
             id="g5603"><path
               d="m 302.422,221.105 26.016,0 0,-109.164 -26.016,0 0,109.164 z"
               style="fill:#0000ff;fill-opacity:0.483092;fill-rule:nonzero;stroke:none"
               id="path5605" /></g></g></g></pattern><clipPath
       clipPathUnits="userSpaceOnUse"
       id="clipPath5619"><path
         d="m 0,0 841.88977,0 0,595.27557 L 0,595.27557 0,0 z"
         id="path5621" /></clipPath><mask
       maskUnits="userSpaceOnUse"
       x="0"
       y="0"
       width="1"
       height="1"
       id="mask5623"><g
         id="g5625"><g
           clip-path="url(#clipPath5619)"
           id="g5627"><path
             d="m 0,0 841.88977,0 0,595.27557 L 0,595.27557 0,0 z"
             style="fill:#000000;fill-opacity:0.773339;fill-rule:nonzero;stroke:none"
             id="path5629" /></g></g></mask><clipPath
       clipPathUnits="userSpaceOnUse"
       id="clipPath5635"><path
         d="m 0,0 841.88977,0 0,595.27557 L 0,595.27557 0,0 z"
         id="path5637" /></clipPath><clipPath
       clipPathUnits="userSpaceOnUse"
       id="clipPath5639"><path
         d="M 0,0 842,0 842,596 0,596 0,0 z"
         id="path5641" /></clipPath><pattern
       patternTransform="translate(0,-0.724426)"
       patternUnits="userSpaceOnUse"
       x="0"
       y="0"
       width="842"
       height="596"
       id="pattern5643"><g
         id="g5645" /><g
         id="g5647"><g
           clip-path="url(#clipPath5639)"
           id="g5649"><g
             id="g5651"><path
               d="m 276.406,255.691 26.016,0 0,-143.75 -26.016,0 0,143.75 z"
               style="fill:#0000ff;fill-opacity:0.483092;fill-rule:nonzero;stroke:none"
               id="path5653" /></g></g></g></pattern><clipPath
       clipPathUnits="userSpaceOnUse"
       id="clipPath5667"><path
         d="m 0,0 841.88977,0 0,595.27557 L 0,595.27557 0,0 z"
         id="path5669" /></clipPath><mask
       maskUnits="userSpaceOnUse"
       x="0"
       y="0"
       width="1"
       height="1"
       id="mask5671"><g
         id="g5673"><g
           clip-path="url(#clipPath5667)"
           id="g5675"><path
             d="m 0,0 841.88977,0 0,595.27557 L 0,595.27557 0,0 z"
             style="fill:#000000;fill-opacity:0.760086;fill-rule:nonzero;stroke:none"
             id="path5677" /></g></g></mask><clipPath
       clipPathUnits="userSpaceOnUse"
       id="clipPath5683"><path
         d="m 0,0 841.88977,0 0,595.27557 L 0,595.27557 0,0 z"
         id="path5685" /></clipPath><clipPath
       clipPathUnits="userSpaceOnUse"
       id="clipPath5687"><path
         d="M 0,0 842,0 842,596 0,596 0,0 z"
         id="path5689" /></clipPath><pattern
       patternTransform="translate(0,-0.724426)"
       patternUnits="userSpaceOnUse"
       x="0"
       y="0"
       width="842"
       height="596"
       id="pattern5691"><g
         id="g5693" /><g
         id="g5695"><g
           clip-path="url(#clipPath5687)"
           id="g5697"><g
             id="g5699"><path
               d="m 250.391,229.312 26.016,0 0,-117.371 -26.016,0 0,117.371 z"
               style="fill:#0000ff;fill-opacity:0.483092;fill-rule:nonzero;stroke:none"
               id="path5701" /></g></g></g></pattern><clipPath
       clipPathUnits="userSpaceOnUse"
       id="clipPath5715"><path
         d="m 0,0 841.88977,0 0,595.27557 L 0,595.27557 0,0 z"
         id="path5717" /></clipPath><mask
       maskUnits="userSpaceOnUse"
       x="0"
       y="0"
       width="1"
       height="1"
       id="mask5719"><g
         id="g5721"><g
           clip-path="url(#clipPath5715)"
           id="g5723"><path
             d="m 0,0 841.88977,0 0,595.27557 L 0,595.27557 0,0 z"
             style="fill:#000000;fill-opacity:0.576295;fill-rule:nonzero;stroke:none"
             id="path5725" /></g></g></mask><clipPath
       clipPathUnits="userSpaceOnUse"
       id="clipPath5731"><path
         d="m 0,0 841.88977,0 0,595.27557 L 0,595.27557 0,0 z"
         id="path5733" /></clipPath><clipPath
       clipPathUnits="userSpaceOnUse"
       id="clipPath5735"><path
         d="M 0,0 842,0 842,596 0,596 0,0 z"
         id="path5737" /></clipPath><pattern
       patternTransform="translate(0,-0.724426)"
       patternUnits="userSpaceOnUse"
       x="0"
       y="0"
       width="842"
       height="596"
       id="pattern5739"><g
         id="g5741" /><g
         id="g5743"><g
           clip-path="url(#clipPath5735)"
           id="g5745"><g
             id="g5747"><path
               d="m 224.375,237.602 26.016,0 0,-125.66 -26.016,0 0,125.66 z"
               style="fill:#0000ff;fill-opacity:0.483092;fill-rule:nonzero;stroke:none"
               id="path5749" /></g></g></g></pattern><clipPath
       clipPathUnits="userSpaceOnUse"
       id="clipPath5763"><path
         d="m 0,0 841.88977,0 0,595.27557 L 0,595.27557 0,0 z"
         id="path5765" /></clipPath><mask
       maskUnits="userSpaceOnUse"
       x="0"
       y="0"
       width="1"
       height="1"
       id="mask5767"><g
         id="g5769"><g
           clip-path="url(#clipPath5763)"
           id="g5771"><path
             d="m 0,0 841.88977,0 0,595.27557 L 0,595.27557 0,0 z"
             style="fill:#000000;fill-opacity:0.51755;fill-rule:nonzero;stroke:none"
             id="path5773" /></g></g></mask><clipPath
       clipPathUnits="userSpaceOnUse"
       id="clipPath5779"><path
         d="m 0,0 841.88977,0 0,595.27557 L 0,595.27557 0,0 z"
         id="path5781" /></clipPath><clipPath
       clipPathUnits="userSpaceOnUse"
       id="clipPath5783"><path
         d="M 0,0 842,0 842,596 0,596 0,0 z"
         id="path5785" /></clipPath><pattern
       patternTransform="translate(0,-0.724426)"
       patternUnits="userSpaceOnUse"
       x="0"
       y="0"
       width="842"
       height="596"
       id="pattern5787"><g
         id="g5789" /><g
         id="g5791"><g
           clip-path="url(#clipPath5783)"
           id="g5793"><g
             id="g5795"><path
               d="m 198.359,209.188 26.016,0 0,-97.246 -26.016,0 0,97.246 z"
               style="fill:#0000ff;fill-opacity:0.483092;fill-rule:nonzero;stroke:none"
               id="path5797" /></g></g></g></pattern><clipPath
       clipPathUnits="userSpaceOnUse"
       id="clipPath5811"><path
         d="m 0,0 841.88977,0 0,595.27557 L 0,595.27557 0,0 z"
         id="path5813" /></clipPath><mask
       maskUnits="userSpaceOnUse"
       x="0"
       y="0"
       width="1"
       height="1"
       id="mask5815"><g
         id="g5817"><g
           clip-path="url(#clipPath5811)"
           id="g5819"><path
             d="m 0,0 841.88977,0 0,595.27557 L 0,595.27557 0,0 z"
             style="fill:#000000;fill-opacity:0.370087;fill-rule:nonzero;stroke:none"
             id="path5821" /></g></g></mask><clipPath
       clipPathUnits="userSpaceOnUse"
       id="clipPath5827"><path
         d="m 0,0 841.88977,0 0,595.27557 L 0,595.27557 0,0 z"
         id="path5829" /></clipPath><clipPath
       clipPathUnits="userSpaceOnUse"
       id="clipPath5831"><path
         d="M 0,0 842,0 842,596 0,596 0,0 z"
         id="path5833" /></clipPath><pattern
       patternTransform="translate(0,-0.724426)"
       patternUnits="userSpaceOnUse"
       x="0"
       y="0"
       width="842"
       height="596"
       id="pattern5835"><g
         id="g5837" /><g
         id="g5839"><g
           clip-path="url(#clipPath5831)"
           id="g5841"><g
             id="g5843"><path
               d="m 172.344,221.066 26.016,0 0,-109.125 -26.016,0 0,109.125 z"
               style="fill:#0000ff;fill-opacity:0.483092;fill-rule:nonzero;stroke:none"
               id="path5845" /></g></g></g></pattern><clipPath
       clipPathUnits="userSpaceOnUse"
       id="clipPath5859"><path
         d="m 0,0 841.88977,0 0,595.27557 L 0,595.27557 0,0 z"
         id="path5861" /></clipPath><mask
       maskUnits="userSpaceOnUse"
       x="0"
       y="0"
       width="1"
       height="1"
       id="mask5863"><g
         id="g5865"><g
           clip-path="url(#clipPath5859)"
           id="g5867"><path
             d="m 0,0 841.88977,0 0,595.27557 L 0,595.27557 0,0 z"
             style="fill:#000000;fill-opacity:0.324165;fill-rule:nonzero;stroke:none"
             id="path5869" /></g></g></mask><clipPath
       clipPathUnits="userSpaceOnUse"
       id="clipPath5875"><path
         d="m 0,0 841.88977,0 0,595.27557 L 0,595.27557 0,0 z"
         id="path5877" /></clipPath><clipPath
       clipPathUnits="userSpaceOnUse"
       id="clipPath5879"><path
         d="M 0,0 842,0 842,596 0,596 0,0 z"
         id="path5881" /></clipPath><pattern
       patternTransform="translate(0,-0.724426)"
       patternUnits="userSpaceOnUse"
       x="0"
       y="0"
       width="842"
       height="596"
       id="pattern5883"><g
         id="g5885" /><g
         id="g5887"><g
           clip-path="url(#clipPath5879)"
           id="g5889"><g
             id="g5891"><path
               d="m 146.328,147.734 26.016,0 0,-35.793 -26.016,0 0,35.793 z"
               style="fill:#0000ff;fill-opacity:0.483092;fill-rule:nonzero;stroke:none"
               id="path5893" /></g></g></g></pattern><clipPath
       clipPathUnits="userSpaceOnUse"
       id="clipPath5907"><path
         d="m 0,0 841.88977,0 0,595.27557 L 0,595.27557 0,0 z"
         id="path5909" /></clipPath><mask
       maskUnits="userSpaceOnUse"
       x="0"
       y="0"
       width="1"
       height="1"
       id="mask5911"><g
         id="g5913"><g
           clip-path="url(#clipPath5907)"
           id="g5915"><path
             d="m 0,0 841.88977,0 0,595.27557 L 0,595.27557 0,0 z"
             style="fill:#000000;fill-opacity:0.231084;fill-rule:nonzero;stroke:none"
             id="path5917" /></g></g></mask><clipPath
       clipPathUnits="userSpaceOnUse"
       id="clipPath5923"><path
         d="m 0,0 841.88977,0 0,595.27557 L 0,595.27557 0,0 z"
         id="path5925" /></clipPath><clipPath
       clipPathUnits="userSpaceOnUse"
       id="clipPath5927"><path
         d="M 0,0 842,0 842,596 0,596 0,0 z"
         id="path5929" /></clipPath><pattern
       patternTransform="translate(0,-0.724426)"
       patternUnits="userSpaceOnUse"
       x="0"
       y="0"
       width="842"
       height="596"
       id="pattern5931"><g
         id="g5933" /><g
         id="g5935"><g
           clip-path="url(#clipPath5927)"
           id="g5937"><g
             id="g5939"><path
               d="m 120.312,132.191 26.016,0 0,-20.25 -26.016,0 0,20.25 z"
               style="fill:#0000ff;fill-opacity:0.483092;fill-rule:nonzero;stroke:none"
               id="path5941" /></g></g></g></pattern></defs><sodipodi:namedview
     pagecolor="#ffffff"
     bordercolor="#666666"
     borderopacity="1"
     objecttolerance="10"
     gridtolerance="10"
     guidetolerance="10"
     inkscape:pageopacity="0"
     inkscape:pageshadow="2"
     inkscape:window-width="728"
     inkscape:window-height="606"
     id="namedview5483"
     showgrid="false"
     inkscape:zoom="0.99590566"
     inkscape:cx="242.17556"
     inkscape:cy="254.4083"
     inkscape:window-x="0"
     inkscape:window-y="0"
     inkscape:window-maximized="0"
     inkscape:current-layer="g5491" /><g
     id="g5489"
     inkscape:groupmode="layer"
     inkscape:label="trial_average1"
     transform="matrix(1.25,0,0,-1.25,0,744.09447)"><g
       id="g5491"><g
         id="g5493"
         transform="matrix(1,0,0,-1,0,595.27557)"><path
           d="m 93.988,131.836 0,42.707 257.668,0"
           style="fill:none;stroke:#000000;stroke-opacity:1;stroke-width:1.6;stroke-linecap:butt;stroke-linejoin:miter;stroke-miterlimit:4;stroke-dasharray:none"
           id="path5495" /></g><g
         id="g5497"
         transform="matrix(1,0,0,-1,0,595.27557)"><path
           d="m 93.988,259.836 0,42.707 257.668,0"
           style="fill:none;stroke:#000000;stroke-opacity:1;stroke-width:1.6;stroke-linecap:butt;stroke-linejoin:miter;stroke-miterlimit:4;stroke-dasharray:none"
           id="path5499" /></g><g
         id="g5501"
         transform="matrix(1,0,0,-1,0,595.27557)"><path
           d="m 95.551,92.551 44.765,0 0,-40.813 63.582,0 0,40.813 14.922,0 0,-40.813 29.848,0 0,40.813 48.66,0 0,-40.813 32.438,0 0,40.813 22.707,0"
           style="fill:none;stroke:#0000ff;stroke-opacity:1;stroke-width:2.349465;stroke-linecap:butt;stroke-linejoin:miter;stroke-miterlimit:4;stroke-dasharray:none"
           id="path5503" /></g><g
         id="g5505"
         transform="matrix(1,0,0,-1,0,595.27557)"><path
           d="m 95.539,172.148 69.723,0 0,-41.484 28.406,0 0,41.484 51.004,0 0,-41.484 65.851,0 0,41.484 41.961,0"
           style="fill:none;stroke:#0000ff;stroke-opacity:1;stroke-width:2.327769;stroke-linecap:butt;stroke-linejoin:miter;stroke-miterlimit:4;stroke-dasharray:none"
           id="path5507" /></g><g
         id="g5509"
         transform="matrix(1,0,0,-1,0,595.27557)"><path
           d="m 95.199,301.023 105.457,0 0,-42.121 28.758,0 0,42.121 42.82,0 0,-42.121 37.711,0 0,42.121 22.367,0 0,-42.121 18.536,0"
           style="fill:none;stroke:#0000ff;stroke-opacity:1;stroke-width:2.333884;stroke-linecap:butt;stroke-linejoin:miter;stroke-miterlimit:4;stroke-dasharray:none"
           id="path5511" /></g><g
         id="g5513"
         transform="matrix(1,0,0,-1,0,595.27557)"><path
           d="m 95.582,484.059 23.793,0 0,-19.219 26.535,0 0,-16.469 25.621,0 0,-72.707 26.992,0 0,10.981 25.395,0 0,-29.282 26.309,0 0,9.121 25.851,0 0,-26.062 26.074,0 0,34.301 25.852,0 0,-15.114 26.539,0"
           style="fill:none;stroke:#0000ff;stroke-opacity:1;stroke-width:2.4;stroke-linecap:butt;stroke-linejoin:miter;stroke-miterlimit:4;stroke-dasharray:none"
           id="path5515" /></g><g
         id="g5517"
         transform="matrix(1,0,0,-1,0,595.27557)"><path
           d="m 93.988,51.762 0,42.707 257.668,0"
           style="fill:none;stroke:#000000;stroke-opacity:1;stroke-width:1.6;stroke-linecap:butt;stroke-linejoin:miter;stroke-miterlimit:4;stroke-dasharray:none"
           id="path5519" /></g><text
         transform="matrix(1,0,0,-1,80.717087,548.51139)"
         id="text5521"><tspan
           style="fill:#000000;fill-opacity:1;fill-rule:nonzero;stroke:none;font-family:Arial;font-variant:normal;font-weight:normal;font-size:19.2;writing-mode:lr;-inkscape-font-specification:ArialMT"
           x="0 5.3184 16.512"
           y="0"
           sodipodi:role="line"
           id="tspan5523">t=0</tspan></text>
<g
         id="g5525"
         transform="matrix(1,0,0,-1,0,595.27557)"><path
           d="m 224.004,51.469 0,434.101 0,-434.101 z"
           style="fill:#0000ff;fill-opacity:1;fill-rule:nonzero;stroke:#0000ff;stroke-opacity:1;stroke-width:0.8;stroke-linecap:butt;stroke-linejoin:miter;stroke-miterlimit:4;stroke-dasharray:3.2,6.4;stroke-dashoffset:0"
           id="path5527" /></g><g
         id="g5529"
         transform="matrix(1,0,0,-1,0,595.27557)"><path
           d="m 120.031,51.469 0,434.101 0,-434.101 z"
           style="fill:#0000ff;fill-opacity:1;fill-rule:nonzero;stroke:#0000ff;stroke-opacity:1;stroke-width:0.8;stroke-linecap:butt;stroke-linejoin:miter;stroke-miterlimit:4;stroke-dasharray:3.2,6.4;stroke-dashoffset:0"
           id="path5531" /></g><g
         id="g5533"
         transform="matrix(1,0,0,-1,0,595.27557)"><path
           d="m 275.992,51.469 0,434.101 0,-434.101 z"
           style="fill:#0000ff;fill-opacity:1;fill-rule:nonzero;stroke:#0000ff;stroke-opacity:1;stroke-width:0.8;stroke-linecap:butt;stroke-linejoin:miter;stroke-miterlimit:4;stroke-dasharray:3.2,6.4;stroke-dashoffset:0"
           id="path5535" /></g><g
         id="g5537"
         transform="matrix(1,0,0,-1,0,595.27557)"><path
           d="m 198.012,51.469 0,434.101 0,-434.101 z"
           style="fill:#0000ff;fill-opacity:1;fill-rule:nonzero;stroke:#0000ff;stroke-opacity:1;stroke-width:0.8;stroke-linecap:butt;stroke-linejoin:miter;stroke-miterlimit:4;stroke-dasharray:3.2,6.4;stroke-dashoffset:0"
           id="path5539" /></g><g
         id="g5541"
         transform="matrix(1,0,0,-1,0,595.27557)"><path
           d="m 301.988,51.469 0,434.101 0,-434.101 z"
           style="fill:#0000ff;fill-opacity:1;fill-rule:nonzero;stroke:#0000ff;stroke-opacity:1;stroke-width:0.8;stroke-linecap:butt;stroke-linejoin:miter;stroke-miterlimit:4;stroke-dasharray:3.2,6.4;stroke-dashoffset:0"
           id="path5543" /></g><g
         id="g5545"
         transform="matrix(1,0,0,-1,0,595.27557)"><path
           d="m 172.02,51.469 0,434.101 0,-434.101 z"
           style="fill:#0000ff;fill-opacity:1;fill-rule:nonzero;stroke:#0000ff;stroke-opacity:1;stroke-width:0.8;stroke-linecap:butt;stroke-linejoin:miter;stroke-miterlimit:4;stroke-dasharray:3.2,6.4;stroke-dashoffset:0"
           id="path5547" /></g><g
         id="g5549"
         transform="matrix(1,0,0,-1,0,595.27557)"><path
           d="m 250,51.469 0,434.101 0,-434.101 z"
           style="fill:#0000ff;fill-opacity:1;fill-rule:nonzero;stroke:#0000ff;stroke-opacity:1;stroke-width:0.8;stroke-linecap:butt;stroke-linejoin:miter;stroke-miterlimit:4;stroke-dasharray:3.2,6.4;stroke-dashoffset:0"
           id="path5551" /></g><g
         id="g5553"
         transform="matrix(1,0,0,-1,0,595.27557)"><path
           d="m 146.023,51.469 0,434.101 0,-434.101 z"
           style="fill:#0000ff;fill-opacity:1;fill-rule:nonzero;stroke:#0000ff;stroke-opacity:1;stroke-width:0.8;stroke-linecap:butt;stroke-linejoin:miter;stroke-miterlimit:4;stroke-dasharray:3.2,6.4;stroke-dashoffset:0"
           id="path5555" /></g><g
         id="g5557"
         transform="matrix(1,0,0,-1,0,595.27557)"><path
           d="m 353.863,51.227 0,430.875 0,-430.875 z"
           style="fill:#0000ff;fill-opacity:1;fill-rule:nonzero;stroke:#0000ff;stroke-opacity:1;stroke-width:0.793316;stroke-linecap:butt;stroke-linejoin:miter;stroke-miterlimit:4;stroke-dasharray:3.173266,6.346531;stroke-dashoffset:0"
           id="path5559" /></g><g
         id="g5561"
         transform="matrix(1,0,0,-1,0,595.27557)"><path
           d="m 328.09,50.891 0,430.871 0,-430.871 z"
           style="fill:#0000ff;fill-opacity:1;fill-rule:nonzero;stroke:#0000ff;stroke-opacity:1;stroke-width:0.793316;stroke-linecap:butt;stroke-linejoin:miter;stroke-miterlimit:4;stroke-dasharray:3.173266,6.346531;stroke-dashoffset:0"
           id="path5563" /></g><path
         d="m 328.438,234.987 26.016,0 0,-123.77 -26.016,0 0,123.77 z"
         style="fill:#0000ff;fill-opacity:0.483092;fill-rule:nonzero;stroke:none"
         id="path5565" /><g
         id="g5567"><g
           id="g5569" /><g
           id="g5583"
           mask="url(#mask5575)"><g
             id="g5585" /><g
             id="g5607"><g
               clip-path="url(#clipPath5587)"
               id="g5609"><g
                 id="g5611"><path
                   d="m 0,0 841.88977,0 0,595.27557 L 0,595.27557 0,0 z"
                   style="fill:url(#pattern5595);fill-opacity:1;fill-rule:nonzero;stroke:none"
                   id="path5613" /></g></g></g></g></g><g
         id="g5615"><g
           id="g5617" /><g
           id="g5631"
           mask="url(#mask5623)"><g
             id="g5633" /><g
             id="g5655"><g
               clip-path="url(#clipPath5635)"
               id="g5657"><g
                 id="g5659"><path
                   d="m 0,0 841.88977,0 0,595.27557 L 0,595.27557 0,0 z"
                   style="fill:url(#pattern5643);fill-opacity:1;fill-rule:nonzero;stroke:none"
                   id="path5661" /></g></g></g></g></g><g
         id="g5663"><g
           id="g5665" /><g
           id="g5679"
           mask="url(#mask5671)"><g
             id="g5681" /><g
             id="g5703"><g
               clip-path="url(#clipPath5683)"
               id="g5705"><g
                 id="g5707"><path
                   d="m 0,0 841.88977,0 0,595.27557 L 0,595.27557 0,0 z"
                   style="fill:url(#pattern5691);fill-opacity:1;fill-rule:nonzero;stroke:none"
                   id="path5709" /></g></g></g></g></g><g
         id="g5711"><g
           id="g5713" /><g
           id="g5727"
           mask="url(#mask5719)"><g
             id="g5729" /><g
             id="g5751"><g
               clip-path="url(#clipPath5731)"
               id="g5753"><g
                 id="g5755"><path
                   d="m 0,0 841.88977,0 0,595.27557 L 0,595.27557 0,0 z"
                   style="fill:url(#pattern5739);fill-opacity:1;fill-rule:nonzero;stroke:none"
                   id="path5757" /></g></g></g></g></g><g
         id="g5759"><g
           id="g5761" /><g
           id="g5775"
           mask="url(#mask5767)"><g
             id="g5777" /><g
             id="g5799"><g
               clip-path="url(#clipPath5779)"
               id="g5801"><g
                 id="g5803"><path
                   d="m 0,0 841.88977,0 0,595.27557 L 0,595.27557 0,0 z"
                   style="fill:url(#pattern5787);fill-opacity:1;fill-rule:nonzero;stroke:none"
                   id="path5805" /></g></g></g></g></g><g
         id="g5807"><g
           id="g5809" /><g
           id="g5823"
           mask="url(#mask5815)"><g
             id="g5825" /><g
             id="g5847"><g
               clip-path="url(#clipPath5827)"
               id="g5849"><g
                 id="g5851"><path
                   d="m 0,0 841.88977,0 0,595.27557 L 0,595.27557 0,0 z"
                   style="fill:url(#pattern5835);fill-opacity:1;fill-rule:nonzero;stroke:none"
                   id="path5853" /></g></g></g></g></g><g
         id="g5855"><g
           id="g5857" /><g
           id="g5871"
           mask="url(#mask5863)"><g
             id="g5873" /><g
             id="g5895"><g
               clip-path="url(#clipPath5875)"
               id="g5897"><g
                 id="g5899"><path
                   d="m 0,0 841.88977,0 0,595.27557 L 0,595.27557 0,0 z"
                   style="fill:url(#pattern5883);fill-opacity:1;fill-rule:nonzero;stroke:none"
                   id="path5901" /></g></g></g></g></g><g
         id="g5903"><g
           id="g5905" /><g
           id="g5919"
           mask="url(#mask5911)"><g
             id="g5921" /><g
             id="g5945"
             clip-path="url(#clipPath5923)"><g
               id="g5947"><path
                 inkscape:connector-curvature="0"
                 id="path5949"
                 style="fill:url(#pattern5931);fill-opacity:1;fill-rule:nonzero;stroke:none"
                 d="m 0,0 841.88977,0 0,595.27557 L 0,595.27557 0,0 z" /></g></g></g></g><g
         id="g5951"
         transform="matrix(1,0,0,-1,0,595.27557)"><path
           d="m 94.43,51.469 0,386.101 0,-386.101 z"
           style="fill:#0000ff;fill-opacity:1;fill-rule:nonzero;stroke:#ff0000;stroke-opacity:1;stroke-width:2.4;stroke-linecap:butt;stroke-linejoin:miter;stroke-miterlimit:4;stroke-dasharray:none"
           id="path5953" /></g><text
         transform="matrix(1,0,0,-1,11.746875,515.96053)"
         id="text5955"><tspan
           style="fill:#000000;fill-opacity:1;fill-rule:nonzero;stroke:none;font-family:Arial;font-variant:normal;font-weight:normal;font-size:19.2;writing-mode:lr;-inkscape-font-specification:ArialMT"
           x="0 5.3184 11.712 15.9936 26.6688 30.9504 36.2496"
           y="0"
           sodipodi:role="line"
           id="tspan5957">trial 1</tspan><tspan
           style="fill:#000000;fill-opacity:1;fill-rule:nonzero;stroke:none;font-family:Arial;font-variant:normal;font-weight:normal;font-size:19.2;writing-mode:lr;-inkscape-font-specification:ArialMT"
           x="0 5.3184 11.712 15.9936 26.6688 30.9504 36.2496"
           y="80.574029"
           sodipodi:role="line"
           id="tspan5959">trial 2</tspan><tspan
           style="fill:#000000;fill-opacity:1;fill-rule:nonzero;stroke:none;font-family:Arial;font-variant:normal;font-weight:normal;font-size:19.2;writing-mode:lr;-inkscape-font-specification:ArialMT"
           x="0.15468749 5.47308749 11.86668749 16.14828749 26.82348749 31.10508749 36.40428749"
           y="208.57404"
           sodipodi:role="line"
           id="tspan5961">trial n</tspan><tspan
           style="fill:#000000;fill-opacity:1;fill-rule:nonzero;stroke:none;font-family:Arial;font-variant:normal;font-weight:normal;font-size:19.2;writing-mode:lr;-inkscape-font-specification:ArialMT"
           x="20.44687949"
           y="114.76153"
           id="tspan5963">.</tspan><tspan
           style="fill:#000000;fill-opacity:1;fill-rule:nonzero;stroke:none;font-family:Arial;font-variant:normal;font-weight:normal;font-size:19.2;writing-mode:lr;-inkscape-font-specification:ArialMT"
           x="20.44687949"
           y="138.76153"
           id="tspan5965">.</tspan><tspan
           style="fill:#000000;fill-opacity:1;fill-rule:nonzero;stroke:none;font-family:Arial;font-variant:normal;font-weight:normal;font-size:19.2;writing-mode:lr;-inkscape-font-specification:ArialMT"
           x="20.44687949"
           y="162.76153"
           id="tspan5967">.</tspan></text>
<text
         transform="matrix(0,1,1,0,82.076563,167.06092)"
         id="text5969"><tspan
           style="fill:#000000;fill-opacity:1;fill-rule:nonzero;stroke:none;font-family:Arial;font-variant:normal;font-weight:normal;font-size:19.2;writing-mode:lr;-inkscape-font-specification:ArialMT"
           x="0 10.6752 17.088 27.7824 33.0816 42.6816 48 54.4128"
           y="0"
           sodipodi:role="line"
           id="tspan5971">p(2 str)</tspan></text>
<text
         transform="matrix(1,0,0,-1,173.6,83.999988)"
         id="text5973"><tspan
           style="fill:#000000;fill-opacity:1;fill-rule:nonzero;stroke:none;font-family:Arial;font-variant:normal;font-weight:normal;font-size:19.2;writing-mode:lr;-inkscape-font-specification:ArialMT"
           x="0 5.3184 9.5808 25.632 36.3072 42.72 52.32"
           y="0"
           sodipodi:role="line"
           id="tspan5975">time(s)</tspan></text>
<g
         id="g5977"
         transform="matrix(0.288238,0,0,-1,0,595.27557)"><path
           d="m 328.464,336.207 0,148.156 893.955,0"
           style="fill:none;stroke:#000000;stroke-opacity:1;stroke-width:5.550965;stroke-linecap:butt;stroke-linejoin:miter;stroke-miterlimit:4;stroke-dasharray:none"
           id="path5979" /></g></g></g></svg>